<?xml version="1.0" encoding="UTF-8" standalone="no"?>
<!-- Generator: Adobe Illustrator 26.3.1, SVG Export Plug-In . SVG Version: 6.00 Build 0)  -->

<svg
   version="1.1"
   id="Layer_1"
   x="0px"
   y="0px"
   viewBox="0 0 316.00001 315.99999"
   xml:space="preserve"
   sodipodi:docname="111.svg"
   width="316"
   height="316"
   inkscape:version="1.2.2 (732a01da63, 2022-12-09)"
   xmlns:inkscape="http://www.inkscape.org/namespaces/inkscape"
   xmlns:sodipodi="http://sodipodi.sourceforge.net/DTD/sodipodi-0.dtd"
   xmlns="http://www.w3.org/2000/svg"
   xmlns:svg="http://www.w3.org/2000/svg"><defs
   id="defs74" /><sodipodi:namedview
   id="namedview72"
   pagecolor="#ffffff"
   bordercolor="#000000"
   borderopacity="0.25"
   inkscape:showpageshadow="2"
   inkscape:pageopacity="0.0"
   inkscape:pagecheckerboard="0"
   inkscape:deskcolor="#d1d1d1"
   showgrid="false"
   showborder="false"
   inkscape:zoom="1.2861282"
   inkscape:cx="297.0155"
   inkscape:cy="168.72347"
   inkscape:window-width="1366"
   inkscape:window-height="705"
   inkscape:window-x="-8"
   inkscape:window-y="-8"
   inkscape:window-maximized="1"
   inkscape:current-layer="Layer_1" />
<style
   type="text/css"
   id="style9">
	.st0{fill-rule:evenodd;clip-rule:evenodd;fill:#079BD8;}
	.st1{fill-rule:evenodd;clip-rule:evenodd;fill:#E3000F;}
	.st2{fill-rule:evenodd;clip-rule:evenodd;}
</style>
<g
   id="g69"
   transform="matrix(0.72507553,0,0,0.72524407,-57.712409,-146.7337)"
   style="stroke-width:1.379">
	<path
   class="st0"
   d="m 297.2,205.8 c 59.4,0 113.2,24.1 152.1,63 38.9,38.9 63,92.7 63,152.1 0,59.4 -24.1,113.2 -63,152.1 -38.9,38.9 -92.7,63 -152.1,63 C 237.8,636 184,612.1 145,573.2 106.1,534.3 82,480.5 82,421.1 82,361.7 106.1,307.9 145,269 c 39,-39.1 92.8,-63.2 152.2,-63.2 z m 147.9,67.3 C 407.2,235.2 355,211.8 297.2,211.8 239.4,211.8 187.1,235.2 149.3,273.1 111.5,311 88,363.2 88,421 c 0,57.8 23.4,110.1 61.3,147.9 37.9,37.9 90.1,61.3 147.9,61.3 57.8,0 110.1,-23.4 147.9,-61.3 C 483,531 506.4,478.8 506.4,421 506.3,363.2 482.9,311 445.1,273.1 Z"
   id="path11"
   style="stroke-width:1.379" />
	<path
   class="st0"
   d="m 297.2,252.6 c 46.5,0 88.6,18.8 119.1,49.3 30.5,30.5 49.3,72.6 49.3,119.1 0,46.5 -18.8,88.6 -49.3,119.1 -30.5,30.5 -72.6,49.3 -119.1,49.3 -46.5,0 -88.6,-18.8 -119.1,-49.3 -30.5,-30.5 -49.3,-72.6 -49.3,-119.1 0,-46.5 18.8,-88.6 49.3,-119.1 30.5,-30.4 72.6,-49.3 119.1,-49.3 z M 412,306.2 c -29.4,-29.4 -70,-47.6 -114.8,-47.6 -44.8,0 -85.4,18.2 -114.8,47.6 -29.4,29.4 -47.6,70 -47.6,114.8 0,44.8 18.2,85.4 47.6,114.8 29.4,29.4 70,47.6 114.8,47.6 44.8,0 85.4,-18.2 114.8,-47.6 29.4,-29.4 47.6,-70 47.6,-114.8 0,-44.8 -18.2,-85.4 -47.6,-114.8 z"
   id="path13"
   style="stroke-width:1.379" />
	<g
   id="g51"
   style="stroke-width:1.379">
		<g
   id="g19"
   style="stroke-width:1.379">
			<path
   class="st0"
   d="m 325.8,428.2 c 44.9,5 73.1,58.4 49.5,100.7 0.6,0.4 2,1.2 2.7,1.6 28.3,-43.9 7.7,-99.8 -47.3,-110.3 35.7,-15.5 48.4,-64.1 14.5,-98.2 -2.8,-2.8 -4,0.2 -2.2,2.4 29.7,36.3 10.5,78.4 -17.1,89.3 0.7,2.9 1,5.9 0.8,9.1 -0.2,1.9 -0.5,3.7 -0.9,5.4 z"
   id="path15"
   style="stroke-width:1.379" />
			<path
   class="st1"
   d="m 379.1,537.3 c -2.3,3.5 -7,4.4 -10.5,2.1 -3.5,-2.3 -4.4,-7 -2.1,-10.5 2.3,-3.5 7,-4.4 10.5,-2.1 3.5,2.3 4.4,7 2.1,10.5 z"
   id="path17"
   style="stroke-width:1.379" />
		</g>
		<g
   id="g25"
   style="stroke-width:1.379">
			<path
   class="st0"
   d="m 305.2,449.4 c 18.1,41.4 -14,92.5 -62.5,93.2 -0.1,0.8 0,2.3 -0.1,3.1 52.2,2.6 90.3,-43.2 71.9,-96.1 31.3,23.2 79.7,9.8 92.3,-36.5 1,-3.8 -2.2,-3.3 -3.2,-0.7 -16.6,43.9 -62.6,48.3 -85.9,29.8 -2.1,2.1 -4.6,3.9 -7.4,5.3 -1.7,0.7 -3.4,1.4 -5.1,1.9 z"
   id="path21"
   style="stroke-width:1.379" />
			<path
   class="st1"
   d="m 237.4,550.1 c -4.2,-0.3 -7.3,-3.8 -7.1,-8 0.3,-4.2 3.8,-7.3 8,-7.1 4.2,0.3 7.3,3.8 7.1,8 -0.2,4.2 -3.8,7.4 -8,7.1 z"
   id="path23"
   style="stroke-width:1.379" />
		</g>
		<g
   id="g31"
   style="stroke-width:1.379">
			<path
   class="st0"
   d="m 276.6,442.2 c -26.8,36.4 -87.1,34.1 -112,-7.5 -0.7,0.3 -2,1.2 -2.7,1.5 23.9,46.5 82.5,56.6 119.2,14.2 -4.5,38.7 31.3,73.9 77.7,61.7 3.8,-1 1.8,-3.5 -1,-3.1 -46.3,7.6 -73.2,-30.1 -68.7,-59.5 -2.9,-0.8 -5.6,-2.1 -8.3,-3.8 -1.5,-1.1 -2.9,-2.3 -4.2,-3.5 z"
   id="path27"
   style="stroke-width:1.379" />
			<path
   class="st1"
   d="m 155.5,433.8 c -1.9,-3.7 -0.3,-8.3 3.4,-10.1 3.7,-1.9 8.3,-0.3 10.1,3.4 1.9,3.7 0.3,8.3 -3.4,10.1 -3.7,1.9 -8.3,0.4 -10.1,-3.4 z"
   id="path29"
   style="stroke-width:1.379" />
		</g>
		<g
   id="g37"
   style="stroke-width:1.379">
			<path
   class="st0"
   d="m 268.6,413.8 c -44.9,-5 -73.1,-58.4 -49.5,-100.7 -0.6,-0.4 -2,-1.2 -2.7,-1.6 -28.3,43.9 -7.7,99.8 47.3,110.3 -35.7,15.5 -48.4,64.1 -14.5,98.2 2.8,2.8 4,-0.2 2.2,-2.4 -29.7,-36.3 -10.5,-78.4 17.1,-89.3 -0.7,-2.9 -1,-5.9 -0.8,-9.1 0.1,-1.9 0.4,-3.7 0.9,-5.4 z"
   id="path33"
   style="stroke-width:1.379" />
			<path
   class="st1"
   d="m 215.2,304.7 c 2.3,-3.5 7,-4.4 10.5,-2.1 3.5,2.3 4.4,7 2.1,10.5 -2.3,3.5 -7,4.4 -10.5,2.1 -3.4,-2.3 -4.4,-7 -2.1,-10.5 z"
   id="path35"
   style="stroke-width:1.379" />
		</g>
		<g
   id="g43"
   style="stroke-width:1.379">
			<path
   class="st0"
   d="m 289.1,392.6 c -18.1,-41.4 14,-92.5 62.5,-93.2 0.1,-0.8 0,-2.3 0.1,-3.1 -52.2,-2.6 -90.3,43.2 -71.9,96.1 -31.3,-23.2 -79.7,-9.8 -92.3,36.5 -1,3.8 2.2,3.3 3.2,0.7 16.6,-43.9 62.6,-48.3 85.9,-29.8 2.1,-2.1 4.6,-3.9 7.4,-5.3 1.7,-0.7 3.4,-1.4 5.1,-1.9 z"
   id="path39"
   style="stroke-width:1.379" />
			<path
   class="st1"
   d="m 356.9,291.9 c 4.2,0.3 7.3,3.8 7.1,8 -0.3,4.2 -3.8,7.3 -8,7.1 -4.2,-0.3 -7.3,-3.8 -7.1,-8 0.2,-4.2 3.8,-7.4 8,-7.1 z"
   id="path41"
   style="stroke-width:1.379" />
		</g>
		<g
   id="g49"
   style="stroke-width:1.379">
			<path
   class="st0"
   d="m 317.7,399.8 c 26.8,-36.4 87.1,-34.1 112,7.5 0.7,-0.3 2,-1.2 2.7,-1.5 -23.9,-46.5 -82.5,-56.6 -119.2,-14.2 4.5,-38.7 -31.3,-73.9 -77.7,-61.7 -3.8,1 -1.8,3.5 1,3.1 46.3,-7.6 73.2,30.1 68.7,59.5 2.9,0.8 5.6,2.1 8.3,3.8 1.5,1.2 2.9,2.3 4.2,3.5 z"
   id="path45"
   style="stroke-width:1.379" />
			<path
   class="st1"
   d="m 438.8,408.2 c 1.9,3.7 0.3,8.3 -3.4,10.1 -3.7,1.9 -8.3,0.3 -10.1,-3.4 -1.9,-3.7 -0.3,-8.3 3.4,-10.1 3.7,-1.9 8.3,-0.4 10.1,3.4 z"
   id="path47"
   style="stroke-width:1.379" />
		</g>
	</g>
	<path
   class="st1"
   d="m 297.2,432.2 c 6.1,0 11.2,-5 11.2,-11.2 0,-6.1 -5,-11.2 -11.2,-11.2 -6.1,0 -11.2,5 -11.2,11.2 0,6.2 5,11.2 11.2,11.2 z"
   id="path53"
   style="stroke-width:1.379" />
	<path
   class="st2"
   d="m 199.1,581.7 1.4,-2.4 0.1,-0.1 0.3,-0.1 0.3,0.1 1,0.6 c 0.2,0.1 0.3,0.3 0.5,0.7 0.3,0.6 0.4,1.2 0.5,1.7 l 0.3,1.7 c 0,0.4 0,0.7 -0.1,0.9 l -0.2,0.2 -0.3,0.1 h -0.3 l -0.2,-0.1 -1.6,-0.9 -2.1,3.6 c -0.1,0.2 -0.2,0.3 -0.2,0.5 0,0.2 0,0.4 0.1,0.6 l 0.2,0.4 h 0.3 0.3 l 0.5,-0.3 0.4,-0.5 0.2,-0.4 0.1,-0.5 0.1,-0.2 V 587 l 1,0.6 1.3,0.7 v 0.2 l -0.1,0.2 -0.1,0.4 -0.2,0.4 c -0.4,0.8 -1,1.2 -1.8,1.4 -0.7,0.1 -1.5,0 -2.2,-0.5 l -1.1,-0.6 c -0.6,-0.3 -1.1,-0.9 -1.4,-1.6 -0.3,-0.7 -0.2,-1.4 0.2,-2.1 l 2,-3.5 -4.6,-2.6 0.6,-1.1 z m -3.5,5.8 -2.1,-1.3 -0.7,1 2.1,1.4 z m -6.9,-4.5 -2.1,-1.5 -0.7,1 7,4.6 0.7,-1 -2.5,-1.6 7.7,-12 -2.3,-1.5 z m -6.8,-4.8 8.3,-11.6 2.3,1.6 -8.3,11.6 2.4,1.7 -0.7,1 -6.6,-4.7 0.8,-1 z m -10.6,-8.2 -2.3,-1.9 -0.8,0.9 11.1,8.8 0.8,-1 -6.5,-5.1 2.3,-3 c 0.2,-0.3 0.4,-0.5 0.7,-0.6 0.4,-0.2 0.8,-0.3 1.1,-0.2 l 0.5,0.2 c 0.3,0.4 0.5,0.8 0.4,1.3 l -0.3,2.4 0.9,0.7 1.5,0.1 0.2,-1.2 0.2,-1.2 0.2,-1.7 0.1,-1.7 c 0.1,-1.7 0.2,-3.3 0.1,-4.8 0,-1.2 -0.2,-2 -0.3,-2.3 l -0.9,-0.7 -1.5,0.1 0.1,0.9 0.2,2.3 v 1.3 l -0.2,3.8 1,0.7 c -0.1,-0.1 -0.2,-0.3 -0.3,-0.5 l -0.4,-0.4 -0.9,-0.8 c -0.6,-0.5 -1.4,-0.8 -2.2,-0.7 -0.9,0 -1.6,0.4 -2.1,1.1 z m -12.4,-11.5 9.8,-10.3 2,1.9 -6.9,7.2 3.2,3 c 0.2,0.2 0.5,0.4 0.8,0.5 0.4,0.3 0.9,0.2 1.4,0 l 0.6,-0.5 c 0.7,-0.7 1.2,-1.6 1.6,-2.7 0.1,-0.3 0.2,-0.7 0.3,-1.1 0.4,-2.2 0.4,-3.5 -0.1,-4 l 1.5,-0.1 0.9,0.8 c 0,0 0,0 0,0.1 0,0.1 0.1,0.2 0.1,0.4 v 1.2 l -0.1,1.8 c 0,0.2 -0.1,0.5 -0.1,0.9 0,0.1 -0.1,0.4 -0.2,0.9 -0.4,1.6 -1,2.8 -2,3.8 -1,1 -2,1.4 -3.2,1.1 -0.3,-0.1 -0.5,-0.2 -0.6,-0.3 -0.1,0 -0.2,-0.2 -0.4,-0.4 l -4.8,-4.5 -2.1,2.2 8.1,7.8 -0.8,0.9 -11.9,-11.9 0.9,-0.8 z m -5.7,-6.1 -1.7,-1.8 -0.9,0.8 2,2.1 -0.6,2.1 -0.4,1.6 c -0.2,1.1 -0.3,2.2 -0.2,3.4 0.1,0.9 0.5,1.7 1,2.2 l 0.8,0.8 c 0.4,0.4 0.8,0.6 1.2,0.8 0.9,0.3 1.9,0.3 2.9,-0.2 0.6,-0.3 1,-0.5 1.3,-0.8 l 0.5,-0.5 0.3,-0.6 0.2,-0.6 0.2,-0.8 -1.2,-1.2 -0.8,-0.9 -0.2,0.5 -0.3,0.8 c -0.2,0.4 -0.3,0.7 -0.4,0.9 -0.1,0.2 -0.3,0.4 -0.5,0.6 -0.2,0.2 -0.3,0.3 -0.4,0.4 -0.1,0 -0.3,0.1 -0.5,0.3 -0.2,0.1 -0.5,0.2 -0.7,0.2 h -0.6 l -0.5,-0.1 c -0.3,-0.7 -0.3,-1.5 -0.2,-2.5 0.3,-2.8 0.6,-4.2 1,-4.2 l 1.6,1.7 0.9,-0.8 -1.8,-1.9 10.3,-9.8 -1.9,-2 z m -11.4,-13.7 11.2,-8.8 1.7,2.2 -3,2.4 c 0.4,0.2 0.7,0.4 1.1,0.6 l 0.9,0.9 0.7,1 c 0.6,0.7 0.9,1.4 1.1,1.9 0.2,0.6 0.3,1.2 0.2,2.1 -0.1,1.6 -0.8,2.9 -2.1,3.9 l -0.8,-0.9 -0.1,-0.3 -0.1,-0.3 v 0 l -0.5,-0.4 -0.6,-0.2 c -0.7,-0.1 -1.3,0.1 -2,0.6 -0.5,0.4 -0.9,1 -1.2,1.9 l -0.3,1.2 3.4,4 -0.9,0.8 -11,-13.6 1,-0.8 z m 1.7,2.2 5.9,-4.6 1.1,-0.1 c 0.3,0 0.5,0 0.5,0.1 0.2,0 0.4,0.1 0.6,0.2 l 0.9,0.4 c 0.4,0.2 0.6,0.4 0.7,0.6 0.5,1.1 0.5,2.3 0,3.4 l -0.1,0.2 -0.1,0.2 -0.1,0.2 -0.2,0.3 -0.8,-0.6 -0.7,-0.4 c -1.3,-0.5 -2.4,-0.3 -3.5,0.5 l -0.6,0.7 -0.6,1.1 -0.2,0.5 -0.2,0.7 z m -17.6,-26.7 12.4,-7.1 1.4,2.4 -4.7,2.7 7.9,2.7 0.6,1 -0.3,1.5 -6,-2.4 c 0.6,1 0.7,1.9 0.4,2.8 -0.3,0.9 -0.8,1.5 -1.3,2 -0.3,0.2 -0.5,0.4 -0.8,0.5 l -4.5,2.7 1.2,2 -1.1,0.6 -7.4,-13.1 1.1,-0.6 z m 1.4,2.5 2.3,4 4.6,-2.6 c 0.8,-0.5 1.3,-1.1 1.4,-1.8 l 0.1,-0.6 -0.1,-0.6 c -0.2,-0.2 -0.4,-0.4 -0.6,-0.5 l -1,-0.5 -0.6,-0.2 -0.8,-0.2 z m -5.1,-9.7 -1.3,-2.6 -1.1,0.6 3.9,7.7 1.1,-0.6 -1.3,-2.6 12.7,-6.5 -1.3,-2.5 z m -0.1,2.5 -1.3,7.3 -1.6,-0.5 -0.5,-1.1 2.5,-7.5 z m -1.2,-2.3 -4,7.7 -1.3,-1 -0.5,-1.1 4.9,-7.5 z m -7.3,-20.3 13.3,-5.2 1,2.6 -3.1,1.2 0.7,0.6 0.8,0.8 c 1.1,1 1.8,2 2.3,3.2 l 0.4,1.1 c 0.1,0.3 0.3,0.9 0.4,1.8 0,0.9 -0.3,1.7 -1,2.6 -0.3,0.3 -0.7,0.5 -1,0.6 -0.4,0.2 -0.7,0.2 -0.9,0.2 -0.3,0.1 -0.6,0.1 -0.9,0 l -0.3,-0.1 -0.4,-0.2 c 0.1,0.4 0,0.9 -0.3,1.7 -0.1,0.3 -0.5,0.7 -1,1.1 0,0 -0.2,0.1 -0.5,0.2 -0.9,0.4 -1.7,0.2 -2.4,-0.5 l -0.3,-0.5 -0.4,-0.7 -1.4,-3.6 -2.1,0.8 4.2,9.7 -1.1,0.6 -5.2,-12.4 -2.9,-7.5 1.2,-0.4 z m 1,2.6 1.1,2.8 3.3,-1.3 1.8,4.5 c 0.1,0.1 0.2,0.3 0.3,0.6 0,0.1 0.1,0.3 0.2,0.4 0.1,0.1 0.3,0.2 0.5,0.2 l 0.7,-0.1 c 0.4,-0.2 0.7,-0.5 0.9,-0.9 l 0.2,-0.4 0.1,-0.3 -0.4,-0.5 -0.3,-0.5 -0.5,-1.1 -0.2,-0.6 -0.2,-0.4 -0.3,-0.8 0.9,-0.9 0.4,1.1 0.1,0.2 0.3,0.7 c 0.3,0.7 0.7,1.2 1.2,1.4 0.5,0.3 1.1,0.3 1.6,0 0.3,-0.1 0.5,-0.3 0.7,-0.5 0.2,-0.2 0.3,-0.5 0.4,-0.8 l 0.1,-0.7 -0.1,-0.7 c -0.1,-0.2 -0.3,-0.4 -0.5,-0.8 -0.6,-0.7 -1.1,-1.2 -1.4,-1.5 -0.2,-0.1 -0.5,-0.4 -1,-0.7 -1.1,-0.9 -1.9,-1.3 -2.4,-1.4 z m -3.6,-10.3 -1.2,-4.1 -1.2,0.3 3,9.5 1.2,-0.4 -0.9,-2.8 13.5,-4.6 -0.9,-2.6 z m -0.9,0.8 -4.6,7.8 -1.4,-0.7 -0.3,-1.2 5.7,-8.1 z m -5.2,-21 -1.1,1.9 -0.5,0.9 c -0.2,0.3 -0.3,0.6 -0.4,0.9 0,0.1 -0.1,0.2 -0.2,0.4 -0.1,0.4 -0.2,0.7 -0.3,0.8 l -0.7,2.1 c -0.2,0.5 -0.3,1.2 -0.4,2 -0.1,0.8 -0.1,1.4 0,1.9 0.2,0.3 0.3,0.6 0.6,0.7 0.4,0.5 1.1,0.9 2,1 0.6,0 1.1,-0.1 1.4,-0.2 l 0.6,-0.2 0.6,-0.3 0.5,-0.3 0.2,-0.2 -0.7,-2.5 1.2,-0.3 0.7,2.5 13.7,-3.9 0.8,2.7 -13.7,3.9 0.7,2.5 -1.2,0.3 -0.7,-2.6 -0.2,0.2 -0.7,0.4 -0.7,0.4 -0.5,0.2 c -0.5,0.2 -1.1,0.3 -1.7,0.2 -1.9,-0.2 -3.2,-1.4 -3.8,-3.5 l -0.4,-1.1 c -0.2,-0.6 -0.3,-1.4 -0.2,-2.4 0.1,-1.9 0.6,-3.7 1.3,-5.4 l 1.1,-2.6 0.6,-1.1 1.3,-2.1 0.2,1.2 z m -0.1,-6.3 -1,-4.3 -1.2,0.1 4,19.3 1.2,-0.3 -1.3,-5.8 4.8,-0.8 0.3,1.7 0.1,0.3 0.1,0.3 0.2,0.2 c 0.1,0 0.2,0 0.3,0 0.6,-0.1 1.3,-0.7 2,-1.7 0.8,-1 1.1,-1.8 1,-2.3 l -0.3,-1.4 -0.2,-0.4 c -0.1,-0.1 -0.3,-0.2 -0.5,-0.2 l -8.4,1.5 -0.6,-3.5 14,-2.5 -0.5,-2.7 z m -1.9,-16.2 3.5,-0.3 -0.3,-0.6 -0.2,-0.6 -0.1,-0.6 -0.1,-1.2 c -0.1,-0.5 0,-1.1 0.2,-1.6 0.4,-1.1 1,-1.9 1.9,-2.3 0.5,-0.3 1,-0.4 1.5,-0.4 1.2,-0.1 2.4,0.3 3.8,1.3 l 0.9,0.6 1.1,0.8 0.1,1.2 -0.9,1.4 -0.1,-0.2 c -0.1,-0.2 -0.6,-0.5 -1.5,-1.1 -1.3,-0.8 -2.4,-1.2 -3.2,-1.1 -0.4,0 -0.9,0.2 -1.4,0.4 -0.3,0.3 -0.6,0.5 -0.7,0.8 l -0.2,0.6 c 0.1,0.5 0.6,1.1 1.4,1.6 0.3,0.2 0.7,0.4 1.3,0.6 0.4,0.1 0.8,0.1 1.2,0.1 l 6.4,-0.5 0.2,2.8 -3.6,0.3 c 0.1,0.3 0.3,0.5 0.3,0.8 l 0.1,0.8 0.1,1.2 c 0.1,1.2 -0.2,2.2 -0.9,3.1 -0.4,0.5 -0.8,0.9 -1.3,1.1 -0.5,0.2 -1,0.4 -1.6,0.4 -1.2,0.1 -2.2,-0.2 -3,-1 -0.6,-0.6 -1,-1.3 -1.3,-2 -0.1,-0.2 -0.1,-0.5 -0.2,-0.8 l -0.1,-1.2 c 0,0 0,-0.2 0,-0.5 0.1,-0.2 0.1,-0.4 0.1,-0.5 0.1,-0.3 0.1,-0.5 0.2,-0.6 l 1.3,-0.1 0.1,1.2 -0.1,0.3 -0.1,0.2 v 0.2 c 0,0 0,0.1 0,0.2 0.1,0.5 0.5,0.9 1,1.3 0.6,0.4 1.3,0.6 2.1,0.6 0.8,-0.1 1.4,-0.3 2,-0.8 l 0.5,-0.6 c 0.1,-0.2 0.2,-0.5 0.2,-0.7 -0.1,-0.3 -0.1,-0.5 -0.3,-0.6 l -0.5,-0.6 -0.4,-0.4 c -0.5,-0.4 -0.9,-0.6 -1.3,-0.6 l -7.4,0.6 0.7,9.1 -1.2,0.1 -1.4,-21.1 h 1.2 z m -0.7,-14.5 -0.1,-2.5 h -1.2 l 0.1,2.8 -1.9,1.1 -1.3,0.9 c -0.9,0.6 -1.7,1.4 -2.4,2.4 -0.5,0.8 -0.8,1.5 -0.7,2.3 l 0.1,1.2 c 0,0.5 0.2,1 0.4,1.4 0.4,0.9 1.2,1.5 2.3,1.8 0.6,0.2 1.1,0.3 1.5,0.2 l 0.7,-0.1 0.7,-0.2 0.6,-0.3 0.7,-0.6 v -1.7 -1.2 l -0.5,0.4 -0.7,0.4 c -0.4,0.2 -0.7,0.3 -0.9,0.4 -0.2,0.1 -0.5,0.1 -0.7,0.1 -0.3,0 -0.5,0 -0.6,0 -0.1,0 -0.3,-0.1 -0.6,-0.2 -0.2,-0.1 -0.5,-0.2 -0.7,-0.3 l -0.4,-0.4 -0.3,-0.4 c 0.3,-0.7 0.8,-1.4 1.5,-2 2.1,-1.9 3.3,-2.7 3.5,-2.5 l 0.1,2.3 h 1.2 l -0.1,-2.6 14.2,-0.4 -0.1,-2.8 z m 2.6,-33.6 14.1,1.8 -0.4,2.8 -7.7,-1 -0.5,4.2 -1.4,0.9 0.7,-5.2 -5.2,-0.7 -0.6,4.4 5,0.6 c 0.2,0.1 0.3,0.1 0.3,0.1 l 0.6,0.3 c 0.2,0.1 0.5,0.4 0.7,0.7 0.1,0.3 0.2,0.6 0.3,1 0,0.1 0,0.2 0,0.4 v 0.3 l -0.2,1.5 c 0,0.1 -0.1,0.3 -0.2,0.4 l 0.1,-1.2 3.1,-1.5 1.1,-0.7 1.8,-1.2 0.7,-0.5 0.9,1.3 -0.2,1.2 c -0.2,0.3 -0.7,0.7 -1.7,1.2 l -5.7,3 -1.5,0.7 -1,0.4 -1,0.4 -0.7,-1.4 0.2,-1.2 1.8,-0.7 c 0.3,-0.1 0.6,-0.2 0.7,-0.4 l 0.4,-0.6 -0.1,-0.3 -0.2,-0.2 -0.4,-0.3 -0.6,-0.1 h -0.5 l -4.1,-0.5 -0.9,7 -1.2,-0.2 2.5,-19.3 1.2,0.2 z m -4.4,-0.8 -1.9,-0.3 0.6,-3.2 1.9,0.3 z m 7.4,-13.2 0.7,-3.2 -1.2,-0.3 -3.5,14.8 1.2,0.2 2.1,-8.9 4,0.9 0.4,0.1 0.6,0.2 0.4,0.3 0.2,0.3 0.1,0.3 -0.5,0.6 c -0.2,0.1 -0.4,0.2 -0.7,0.3 l -1.8,0.5 -0.3,1.2 0.5,1.4 1.1,-0.3 1,-0.3 1.5,-0.5 6,-2.4 c 1,-0.4 1.6,-0.8 1.8,-1.1 l 0.3,-1.2 -0.7,-1.4 -0.8,0.5 -1.9,1 -1.2,0.6 -3.2,1.2 -0.2,1.2 c 0.1,-0.1 0.2,-0.2 0.2,-0.4 l 0.4,-1.5 v -0.3 c 0,-0.1 0,-0.2 0,-0.4 0,-0.4 0,-0.8 -0.2,-1.1 -0.2,-0.4 -0.4,-0.7 -0.6,-0.8 l -0.6,-0.3 c 0,0 -0.1,0 -0.3,-0.1 z m 6.4,1.3 -1.4,0.7 1.5,-6.3 1.2,0.3 z m 7.1,-14.7 0.3,0.8 0.3,1.1 0.1,1 v 1 l -0.2,1 -0.4,1.1 c -0.3,1.1 -0.8,1.9 -1.4,2.6 -0.6,0.7 -1.4,1.2 -2.5,1.7 -0.5,0.2 -0.9,0.3 -1.2,0.4 l -1.7,0.3 0.3,-1.2 c 0.3,-0.3 0.5,-0.5 0.6,-0.7 l 0.4,-0.9 c 0.3,-0.9 0.2,-1.8 -0.2,-2.7 -0.4,-0.9 -1.1,-1.4 -2.1,-1.7 -0.7,-0.2 -1.5,-0.1 -2.2,0.2 -0.3,0.1 -0.5,0.3 -0.7,0.5 l -0.5,0.6 0.1,0.5 0.1,0.4 c 0.1,0.2 0.2,0.4 0.4,0.5 l 0.6,0.3 c 0.6,0.2 1.1,0 1.5,-0.6 l 0.2,-0.3 0.2,-0.5 1.2,0.3 -0.4,1.5 c -0.1,0.2 -0.1,0.4 -0.2,0.6 -0.1,0.2 -0.2,0.4 -0.4,0.6 -0.4,0.5 -0.8,0.8 -1.3,1 -0.5,0.2 -1,0.2 -1.7,0 -0.6,-0.2 -1,-0.5 -1.4,-1.1 -0.3,-0.5 -0.5,-1.1 -0.5,-1.7 0,-0.4 0,-0.8 0.1,-1.2 l 0.3,-1.2 c 0.1,-0.5 0.4,-1 0.8,-1.5 0.6,-0.9 1.6,-1.5 2.8,-1.6 0.6,-0.1 1.1,0 1.6,0.1 1.3,0.4 2.3,1.1 2.8,2.3 0.5,1.1 0.5,2.6 0,4.3 l -0.1,0.3 c 0.3,0 0.7,-0.2 1,-0.4 l 1,-0.8 0.7,-0.8 c 0.1,-0.1 0.1,-0.2 0.3,-0.4 0.1,-0.2 0.2,-0.4 0.3,-0.4 0.2,-1.4 0,-2.7 -0.8,-3.9 l -0.5,-0.9 -0.9,-1 0.4,-1.6 1.9,0.6 z m -7.4,-6.6 1,-2.7 -1.2,-0.3 -2.8,8 1.2,0.4 0.9,-2.8 13.5,4.6 0.9,-2.6 z m 3,-7.8 13.3,5.2 -1,2.6 -13.3,-5.2 -1.1,2.7 -1.1,-0.5 3.2,-8 1.1,0.5 z m 7.5,-15.9 1.1,-2.2 -1.1,-0.6 -7.5,15.5 1.1,0.5 5.1,-10.7 3.7,1.9 -3.7,7.4 -0.1,0.3 v 0.3 c 0,0.4 0.2,0.6 0.6,0.8 0.2,0.1 0.5,0.1 0.9,0 0.6,0 1.2,-0.1 1.6,-0.3 l 1.5,-0.5 c 0.4,-0.2 0.6,-0.3 0.6,-0.4 l 0.6,-1.1 0.1,-0.3 -0.1,-0.3 c -0.1,-0.1 -0.1,-0.1 -0.2,-0.1 l -0.4,-0.2 -2.3,-1.2 2,-3.9 7.9,4.1 1.3,-2.5 z m 16.2,-25.9 11.6,8.3 -1.6,2.3 -11.6,-8.3 -2.1,2.9 7,5 c 0.2,0.1 0.2,0.3 0.2,0.5 l -0.1,0.4 -0.7,1 c -0.3,0.4 -1.1,0.7 -2.4,0.9 -1.3,0.2 -2.1,0.1 -2.6,-0.3 -0.1,-0.1 -0.2,-0.1 -0.2,-0.2 v -0.2 l 0.1,-0.2 0.2,-0.3 1,-1.4 -3.9,-2.8 -2.8,4 -1,-0.7 10,-14.1 1,0.7 z m 5.6,-7.1 1.8,-2.3 -1,-0.8 -5.5,6.8 1,0.7 1.9,-2.2 11.2,8.8 1.7,-2.2 z m -3.5,-3.1 -1.5,-1.3 2.1,-2.5 1.5,1.3 z m 20.8,-2.5 -0.1,1.3 c -0.2,1.5 -0.7,2.7 -1.7,3.8 l -0.8,0.9 c -0.3,0.3 -0.7,0.7 -1.1,0.9 -0.9,0.5 -1.9,0.7 -2.8,0.5 -0.4,-0.1 -0.8,-0.3 -1.1,-0.6 -0.5,-0.4 -0.8,-1.1 -1,-1.8 v -0.4 -0.6 c -0.6,0.2 -1.4,0.4 -2.4,0.4 l -1.2,-0.3 c -0.4,-0.2 -0.7,-0.3 -1,-0.6 -0.7,-0.6 -1,-1.3 -1.1,-2 -0.1,-0.8 0.2,-1.5 0.8,-2.2 l 0.8,-0.9 c 0.3,-0.3 0.5,-0.5 0.8,-0.6 0.5,-0.4 1.2,-0.5 2,-0.3 0.3,0.1 0.6,0.2 0.8,0.4 l 0.7,0.6 -1.7,1.9 -0.7,-0.6 c -0.1,-0.1 -0.3,-0.2 -0.6,-0.3 -0.2,-0.1 -0.5,0 -0.7,0.1 v 0.4 0.4 l 0.3,0.6 0.5,0.5 c 0.6,0.5 1.3,0.8 2,0.8 h 0.7 l 0.6,-0.1 0.4,-0.7 0.5,-0.7 0.8,-0.9 c 0.1,-0.1 0.3,-0.3 0.4,-0.4 l 0.4,-0.4 1.3,0.2 -1.2,1.6 c -0.8,1 -1.1,1.8 -1,2.5 0.1,0.5 0.3,0.9 0.8,1.3 0.5,0.4 1,0.5 1.6,0.4 l 0.6,-0.2 0.6,-0.4 0.4,-0.7 0.3,-0.8 0.2,-0.8 0.1,-0.9 0.4,-4 1.6,1.6 c -0.1,0 -0.1,0.8 -0.2,1.1 z m -9.5,-3.3 -0.9,-0.8 1.4,-1.6 0.9,0.8 z m 5.3,-5.7 10.3,9.8 -1.9,2 -10.3,-9.8 -2,2.1 -0.9,-0.8 6,-6.3 0.9,0.8 z m 6.1,-5.8 1.8,-1.7 -0.8,-0.9 -2.1,2 -2.1,-0.6 -1.6,-0.4 c -1.1,-0.2 -2.2,-0.3 -3.4,-0.2 -0.9,0.1 -1.7,0.5 -2.2,1 l -0.8,0.8 c -0.4,0.4 -0.6,0.8 -0.8,1.2 -0.3,0.9 -0.3,1.9 0.2,2.9 0.3,0.6 0.5,1 0.8,1.3 l 0.5,0.5 0.6,0.3 0.6,0.2 0.7,0.2 2,-2.1 -0.4,-0.1 -0.8,-0.3 c -0.4,-0.2 -0.7,-0.3 -0.9,-0.4 -0.2,-0.1 -0.4,-0.3 -0.6,-0.5 -0.2,-0.2 -0.3,-0.3 -0.4,-0.4 0,-0.1 -0.1,-0.3 -0.3,-0.5 -0.1,-0.2 -0.2,-0.5 -0.2,-0.7 v -0.6 l 0.1,-0.5 c 0.7,-0.3 1.5,-0.3 2.5,-0.2 2.8,0.3 4.2,0.6 4.2,1 l -1.8,1.5 0.9,0.8 2,-1.7 9.8,10.3 2,-1.9 z m 13.4,-11.2 8.8,11.2 -2.2,1.7 -5.5,-7 -3.5,2.7 1.6,2 0.2,0.3 c 0,0 0.1,0.1 0.1,0.2 l -0.1,0.3 -0.2,0.3 -1,0.7 c -0.1,0.1 -0.3,0.1 -0.7,0.1 l -1.6,-0.2 c -0.5,-0.1 -1,-0.2 -1.6,-0.4 -0.4,-0.1 -0.7,-0.3 -0.8,-0.4 -0.2,-0.3 -0.3,-0.6 -0.2,-1 l 0.2,-0.2 0.3,-0.2 6.5,-5.1 -2.5,-3.2 -9.4,7.8 -0.8,-0.9 13.6,-11.1 0.8,1 z m 13.5,-9.7 2.7,-1.9 -0.7,-1 -14.4,10.2 0.8,0.9 4.2,-3 2.8,3.9 -1.4,1 -0.3,0.2 -0.2,0.2 -0.1,0.2 c 0,0.1 0.1,0.2 0.1,0.3 0.3,0.5 1.1,0.9 2.4,1.1 1.3,0.2 2.1,0.2 2.6,-0.1 l 1,-0.7 0.3,-0.3 c 0.1,-0.2 0,-0.3 -0.1,-0.5 l -5,-7 2.9,-2.1 8.3,11.6 2.3,-1.6 z m 12.9,-7.4 2,3.4 c 0.4,0.8 0.5,1.6 0.2,2.4 -0.3,0.8 -0.8,1.4 -1.5,1.8 l -1.1,0.6 -0.5,0.3 c -0.2,0.1 -0.4,0.1 -0.5,0.1 l 1,-0.6 3.4,1.6 1.3,0.5 2.2,0.7 0.9,0.2 -0.5,1.4 -1,0.6 c -0.4,0 -1.1,-0.2 -2.3,-0.6 -1.5,-0.5 -2.9,-1.2 -4.5,-1.9 l -1.5,-0.7 -1.5,-0.8 -1.1,-0.6 -1.1,-0.6 0.6,-1.4 1,-0.6 2.1,1.2 c 0.4,0.2 0.8,0.2 1.3,0.1 l 0.4,-0.4 c 0.2,-0.2 0.3,-0.6 0.3,-1.1 0,-0.3 -0.1,-0.6 -0.3,-0.9 l -1.9,-3.3 -7.7,4 -0.7,-1 12.3,-6.7 0.6,1.1 z"
   id="path55"
   style="stroke-width:1.379" />
	<path
   class="st2"
   d="m 229.6,253.2 -0.3,-0.7 c -1.6,0.6 -1.8,0.5 -2.6,-1.1 l -3.5,-7.8 c -0.8,-1.7 -0.6,-1.9 0.8,-2.7 l -0.3,-0.7 -5.7,2.6 0.3,0.7 c 1.6,-0.6 1.8,-0.5 2.6,1.1 l 3.5,7.8 c 0.8,1.7 0.6,1.9 -0.9,2.7 l 0.3,0.7 z m 11.1,-19 0.3,0.8 c -1.1,0.4 -1.5,0.9 -1.3,1.8 0.1,0.7 0.4,1.7 1,3.5 l 2.8,8.4 -1,0.3 -12,-7.7 v 0 l 1.6,4.9 c 0.6,1.8 1,2.7 1.3,3.3 0.4,0.9 1,1.1 2.4,0.6 l 0.3,0.8 -5.1,1.7 -0.3,-0.8 c 1.1,-0.5 1.5,-0.9 1.3,-1.9 -0.1,-0.7 -0.4,-1.7 -1,-3.5 l -1.5,-4.5 c -0.5,-1.4 -0.6,-1.7 -1.1,-2 -0.6,-0.4 -1.1,-0.4 -2,-0.1 l -0.3,-0.8 3.5,-1.2 11.2,7 h 0.1 l -1.4,-4.3 c -0.6,-1.8 -1,-2.8 -1.3,-3.4 -0.4,-0.8 -1,-0.9 -2.4,-0.5 l -0.3,-0.8 z m 2.7,-1 0.2,0.8 c 1.6,-0.2 1.8,-0.1 2.2,1.7 l 1.9,8.3 c 0.4,1.8 0.2,2 -1.5,2.5 l 0.2,0.8 5.2,-1.2 c 2.7,-0.6 4.7,-1.7 5.9,-3.3 1.4,-1.6 1.9,-3.7 1.3,-6.4 -0.5,-2 -1.6,-3.4 -2.9,-4.2 -1.7,-1 -3.8,-1.1 -6.5,-0.4 z m 4.7,1.4 c -0.2,-0.7 -0.2,-1 0,-1.2 0.1,-0.2 0.6,-0.4 1.4,-0.6 1.4,-0.3 2.6,-0.2 3.7,0.3 1.5,0.6 2.6,2.2 3,4.3 0.9,3.7 -0.5,6.7 -3.7,7.4 -1.5,0.3 -2.1,0 -2.4,-1.6 z m 20.3,8 -0.1,-0.8 c -1.7,0.2 -1.9,0.1 -2.2,-1.7 l -1.5,-8.4 c -0.3,-1.8 -0.2,-2 1.5,-2.4 l -0.1,-0.8 -6.1,1.1 0.1,0.8 c 1.7,-0.2 1.9,-0.1 2.2,1.7 l 1.5,8.4 c 0.3,1.8 0.1,2 -1.5,2.4 l 0.1,0.8 z m 14.8,-1.9 -0.1,-0.8 c -1.5,0 -1.8,-0.1 -2.7,-2 -1.9,-3.5 -3.8,-7.5 -5.6,-11 l -1,0.4 -2.9,11.9 c -0.5,2 -0.7,2.2 -2.2,2.5 l 0.1,0.8 4.9,-0.6 -0.1,-0.8 c -1.6,0 -1.7,-0.2 -1.5,-1.4 0.1,-0.9 0.3,-1.7 0.5,-2.5 l 4.3,-0.5 c 0.5,0.9 0.9,1.9 1.3,2.6 0.4,0.9 0.3,1.1 -1,1.4 l 0.1,0.8 z m -6.8,-5.2 -3.6,0.5 c 0.4,-1.7 0.8,-3.5 1.2,-5.3 h 0.1 z m 22.6,-9.6 -5.4,0.1 v 0.8 c 1.5,0.1 2,0.4 2.2,1.2 0.1,0.7 0.2,1.7 0.3,3.6 l 0.1,4.5 h -0.1 l -8.7,-10 -3.7,0.1 v 0.8 c 0.9,0.1 1.5,0.2 1.9,0.7 0.4,0.5 0.4,0.8 0.5,2.3 l 0.1,4.7 c 0,1.9 0,2.9 -0.1,3.6 -0.1,0.9 -0.6,1.3 -1.8,1.4 v 0.8 l 5.4,-0.1 v -0.8 c -1.5,0 -2,-0.3 -2.1,-1.3 -0.1,-0.7 -0.2,-1.7 -0.3,-3.6 l -0.1,-5.1 v 0 l 9.1,10.9 h 1 l -0.2,-8.8 c 0,-1.9 0,-3 0.1,-3.7 0.1,-0.9 0.6,-1.2 1.8,-1.3 z m 12.7,15 0.1,-0.8 c -1.7,-0.3 -1.9,-0.4 -1.7,-2.2 l 0.6,-8.5 c 0.1,-1.8 0.4,-2 2,-2 l 0.1,-0.8 -6.2,-0.5 -0.1,0.8 c 1.7,0.2 1.9,0.4 1.7,2.2 l -0.6,8.5 c -0.1,1.8 -0.4,1.9 -2.1,2 l -0.1,0.8 z m 18.3,-12.3 -5.3,-0.7 -0.1,0.8 c 1.5,0.3 2,0.7 2,1.5 0,0.7 -0.1,1.7 -0.3,3.6 l -0.6,4.5 h -0.1 l -7.1,-11.2 -3.7,-0.5 -0.1,0.8 c 0.9,0.2 1.4,0.4 1.8,1 0.3,0.6 0.3,0.8 0.1,2.3 l -0.6,4.7 c -0.2,1.9 -0.5,2.9 -0.6,3.6 -0.2,0.9 -0.8,1.2 -2,1.1 l -0.1,0.8 5.3,0.7 0.1,-0.8 c -1.5,-0.3 -1.9,-0.6 -1.9,-1.6 0,-0.7 0.1,-1.7 0.3,-3.6 l 0.6,-5.1 v 0 l 7.4,12.1 1,0.1 1.1,-8.8 c 0.2,-1.9 0.4,-2.9 0.6,-3.6 0.2,-0.9 0.7,-1.1 1.9,-1 z m 10.4,5.6 c 0.1,-1.4 0.2,-2.4 0.3,-3.2 -0.5,-0.3 -1.5,-0.9 -2.7,-1.2 -2.9,-0.7 -5.1,0.7 -5.6,3 -0.5,2.2 1,3.8 2.6,5.1 1.4,1.2 2.3,2.2 2,3.6 -0.3,1.4 -1.4,2.2 -2.8,1.8 -2.1,-0.5 -2.7,-3 -2.7,-4.4 h -0.9 c -0.1,1.3 -0.3,3 -0.2,3.6 0.2,0.2 0.6,0.4 1.1,0.7 0.5,0.3 1.2,0.6 2,0.8 3,0.7 5.5,-0.7 6,-3.1 0.5,-2.3 -1,-3.8 -2.7,-5.3 -1.6,-1.3 -2.3,-2.2 -2,-3.6 0.3,-1.2 1.3,-2 2.7,-1.7 1.8,0.4 2,2.1 2.1,3.5 z m 14.4,4.1 c 0.3,-1.3 0.7,-3.1 0.9,-4 l -0.6,-0.2 c -0.4,0.3 -0.7,0.4 -1.3,0.2 l -8.2,-2.3 c -0.6,-0.2 -0.8,-0.3 -1,-0.9 l -0.6,-0.2 c -0.4,1.1 -0.9,2.6 -1.4,4 l 0.8,0.2 c 0.5,-0.9 0.9,-1.5 1.3,-1.8 0.4,-0.3 0.9,-0.4 2.4,0 l 1,0.3 -2.9,10.1 c -0.5,1.7 -0.7,1.8 -2.6,1.5 l -0.2,0.8 6.5,1.9 0.2,-0.8 c -1.9,-0.7 -2,-0.9 -1.5,-2.6 l 2.9,-10.1 1.2,0.3 c 1.3,0.4 1.7,0.6 1.9,1.1 0.2,0.5 0.3,1.1 0.2,2.3 z m 4.3,12.9 -5.9,-2 0.3,-0.8 c 1.6,0.4 1.9,0.3 2.5,-1.4 l 2.7,-8.1 c 0.6,-1.8 0.4,-2 -1.1,-2.6 l 0.3,-0.8 5.9,2 -0.3,0.8 c -1.6,-0.4 -1.9,-0.4 -2.5,1.4 l -2.7,8.1 c -0.6,1.8 -0.4,1.9 1.1,2.6 z m 17.1,-4.9 c 0.4,-1.3 1,-3 1.3,-3.9 l -0.6,-0.2 c -0.5,0.3 -0.7,0.3 -1.3,0.1 l -7.9,-3.1 c -0.6,-0.2 -0.8,-0.4 -0.9,-1 l -0.5,-0.2 c -0.5,1.1 -1.2,2.5 -1.8,3.8 l 0.8,0.3 c 0.6,-0.8 1.1,-1.4 1.5,-1.7 0.4,-0.3 0.9,-0.3 2.4,0.3 l 1,0.4 -3.9,9.8 c -0.7,1.7 -0.9,1.8 -2.7,1.2 l -0.3,0.8 6.3,2.5 0.3,-0.8 c -1.8,-0.9 -1.9,-1.1 -1.3,-2.8 l 3.9,-9.8 1.1,0.5 c 1.3,0.5 1.6,0.8 1.8,1.3 0.2,0.5 0.1,1.1 0,2.3 z m 17.1,4.8 -0.4,0.7 c -1.1,-0.5 -1.7,-0.5 -2.2,0.2 -0.4,0.6 -0.8,1.3 -1.6,2.9 l -1,1.9 c -1.1,2.2 -2.3,3.7 -4,4.3 -1.4,0.5 -2.9,0.3 -4.2,-0.4 -1.2,-0.6 -2.3,-1.5 -2.8,-2.7 -0.7,-1.4 -0.5,-3.2 0.7,-5.5 l 2.5,-4.8 c 0.9,-1.7 0.8,-1.9 -0.7,-2.8 l 0.4,-0.7 5.5,2.8 -0.4,0.7 c -1.5,-0.7 -1.8,-0.6 -2.6,1.1 l -2.3,4.4 c -1.6,3.1 -1.3,5.3 0.9,6.4 2.4,1.2 4.4,-0.2 6,-3.4 l 0.9,-1.8 c 0.8,-1.6 1.1,-2.4 1.4,-3.1 0.3,-0.8 -0.1,-1.3 -1.4,-2 l 0.4,-0.7 z m 10.8,11 c 0.7,-1.2 1.6,-2.8 2.1,-3.6 l -0.5,-0.3 c -0.5,0.2 -0.8,0.2 -1.3,-0.1 l -7.2,-4.6 c -0.5,-0.3 -0.7,-0.5 -0.7,-1.1 L 396,252 c -0.7,1 -1.6,2.2 -2.5,3.4 l 0.7,0.5 c 0.8,-0.7 1.3,-1.2 1.8,-1.3 0.5,-0.2 0.9,-0.1 2.3,0.7 l 0.9,0.6 -5.7,8.9 c -1,1.5 -1.2,1.6 -2.9,0.6 l -0.4,0.7 5.7,3.7 0.4,-0.7 c -1.6,-1.2 -1.7,-1.4 -0.7,-3 l 5.7,-8.9 1,0.7 c 1.2,0.7 1.4,1.1 1.5,1.6 0.1,0.5 -0.1,1.1 -0.5,2.2 z m 6.2,13 0.6,0.6 c -0.6,0.6 -2.2,2.1 -2.7,2.5 l -8.9,-6.3 0.5,-0.7 c 1.6,1 1.9,1 2.9,-0.5 l 4.9,-6.9 c 1.1,-1.5 1,-1.7 -0.3,-2.8 l 0.5,-0.7 8.2,5.9 c -0.2,0.3 -1.1,1.7 -1.7,2.8 l -0.8,-0.4 c 0.3,-0.8 0.4,-1.4 0.4,-2 0,-0.5 -0.4,-1 -1.5,-1.8 l -1.1,-0.8 c -0.6,-0.4 -0.7,-0.5 -1.1,0.1 l -2.7,3.8 1.4,1 c 1.5,1.1 1.8,1.1 2.9,0 l 0.7,0.5 -2.6,3.6 -0.7,-0.5 c 0.7,-1.5 0.6,-1.7 -0.9,-2.8 l -1.4,-1 -2.3,3.2 c -0.6,0.8 -0.8,1.3 -0.6,1.8 0.2,0.4 0.8,0.9 1.5,1.4 1,0.7 1.7,1.1 2.4,0.9 0.8,0.1 1.6,-0.3 2.4,-0.9 z m 18.9,1.9 c -3.4,-3.3 -7.9,-2.4 -10.5,0.4 -3,3.1 -2.9,7.5 0,10.3 2.9,2.8 7.2,3 10.6,-0.5 3,-3.3 2.7,-7.6 -0.1,-10.2 z m -0.9,0.4 c 1.9,1.8 1.5,5 -1.6,8.2 -2.8,3 -5.5,3.2 -7.1,1.7 -2.1,-2 -1.2,-5.4 1.4,-8.3 2.7,-2.8 5.6,-3.2 7.3,-1.6 z m 12.2,16.1 -0.7,-0.5 c 0.5,-0.8 0.7,-1.3 0.8,-1.8 0.1,-0.6 -0.1,-1.1 -1.1,-2.1 l -0.9,-1 c -0.5,-0.5 -0.6,-0.6 -1.1,-0.1 l -3.6,3.4 1.4,1.4 c 1.3,1.4 1.6,1.4 2.8,0.6 l 0.6,0.6 -3.2,3 -0.6,-0.6 c 1,-1.2 1,-1.5 -0.4,-2.9 l -1.4,-1.4 -2.7,2.5 c -1.4,1.3 -1.3,1.5 -0.1,3.1 l -0.6,0.6 -4.5,-4.7 0.6,-0.6 c 1.2,1.1 1.5,1.2 2.9,-0.1 l 6.1,-5.8 c 1.4,-1.3 1.3,-1.6 0.3,-2.8 l 0.6,-0.6 7,7.3 c -0.3,0.4 -1.4,1.6 -2.2,2.5 z m 12.3,15.6 c 1,-0.9 2.4,-2.1 3.1,-2.7 l -0.4,-0.5 c -0.5,0 -0.8,-0.1 -1.2,-0.6 l -5.3,-6.7 c -0.4,-0.5 -0.5,-0.7 -0.3,-1.3 l -0.4,-0.5 c -0.9,0.7 -2.2,1.5 -3.5,2.4 l 0.5,0.7 c 1,-0.4 1.6,-0.7 2.1,-0.7 0.5,0 0.9,0.2 1.9,1.5 l 0.6,0.8 -8.3,6.5 c -1.4,1.1 -1.7,1.1 -3,-0.4 l -0.6,0.5 4.2,5.3 0.6,-0.5 c -1.1,-1.7 -1.1,-1.9 0.3,-3 l 8.3,-6.5 0.8,1 c 0.8,1.1 1,1.5 0.9,2 -0.1,0.5 -0.5,1.1 -1.2,2 z m 1.2,14.8 0.3,0.8 c -0.8,0.4 -2.8,1.1 -3.5,1.3 l -5.9,-9.2 0.7,-0.4 c 1.1,1.5 1.4,1.6 2.9,0.6 l 7.2,-4.6 c 1.6,-1 1.6,-1.3 0.8,-2.7 l 0.7,-0.4 5.5,8.5 c -0.3,0.2 -1.6,1.2 -2.6,2 l -0.6,-0.7 c 0.6,-0.6 0.9,-1.1 1.1,-1.6 0.2,-0.5 0,-1.1 -0.7,-2.2 l -0.7,-1.1 c -0.4,-0.6 -0.5,-0.7 -1.1,-0.3 l -4,2.5 0.9,1.4 c 1,1.6 1.2,1.7 2.7,1.1 l 0.4,0.7 -3.7,2.4 -0.4,-0.7 c 1.2,-1.1 1.2,-1.3 0.2,-2.9 l -0.9,-1.4 -3.3,2.1 c -0.9,0.6 -1.2,1 -1.2,1.4 0,0.4 0.4,1.1 0.9,1.9 0.7,1.1 1.2,1.6 1.9,1.7 0.6,0.1 1.4,0 2.4,-0.2 z m 7.6,12.5 c -2.5,0.2 -4,-0.3 -5,-2 -1.5,-2.6 -0.2,-5.9 3.3,-7.9 2.9,-1.7 6.3,-1.6 8,1.2 1,1.7 0.9,3.3 -0.9,5.1 l 0.6,0.6 c 1.1,-0.8 1.9,-1.4 2.8,-2.2 -0.2,-0.6 -0.6,-2.1 -1.4,-3.6 -2.5,-4.3 -6.9,-5.8 -10.9,-3.5 -3.1,1.8 -5.2,5.7 -2.4,10.5 0.8,1.3 2.1,2.8 2.5,3.2 0.9,-0.1 2.5,-0.4 3.6,-0.7 z m 16.8,11.9 -0.7,0.3 c -0.8,-1.5 -1,-1.6 -2.7,-0.9 l -7.8,3.5 c -1.7,0.8 -1.7,1 -1.1,2.6 l -0.7,0.3 -2.6,-5.8 0.7,-0.3 c 0.9,1.6 1.1,1.7 2.7,1 l 3.8,-1.7 -2.6,-5.9 -3.8,1.7 c -1.7,0.8 -1.7,1 -1.1,2.6 l -0.7,0.3 -2.6,-5.7 0.7,-0.3 c 0.8,1.5 1,1.6 2.7,0.8 l 7.8,-3.5 c 1.7,-0.8 1.7,-1 1.1,-2.6 l 0.7,-0.3 2.6,5.7 -0.7,0.3 c -0.8,-1.4 -1,-1.5 -2.6,-0.8 l -3,1.3 2.6,5.9 3,-1.3 c 1.7,-0.8 1.7,-1 1.2,-2.5 l 0.7,-0.3 z m 5.9,17 -1.7,-5.1 -0.8,0.3 c 0.4,1.5 0.3,2 -0.5,2.4 -0.6,0.3 -1.5,0.7 -3.4,1.3 l -4.3,1.4 v -0.1 l 7,-11.2 -1.2,-3.5 -0.8,0.3 c 0.2,0.9 0.2,1.5 -0.1,2 -0.4,0.5 -0.6,0.7 -2,1.1 l -4.5,1.5 c -1.8,0.6 -2.8,0.9 -3.5,1 -0.9,0.2 -1.4,-0.2 -1.9,-1.3 l -0.8,0.3 1.7,5.1 0.8,-0.3 c -0.4,-1.5 -0.3,-2 0.6,-2.4 0.6,-0.3 1.6,-0.7 3.3,-1.3 l 4.9,-1.6 v 0 l -7.7,12 0.3,1 8.4,-2.8 c 1.8,-0.6 2.8,-0.9 3.5,-1 0.9,-0.2 1.3,0.2 1.8,1.3 z m 2.8,9.7 c -1.1,-4.6 -5.3,-6.3 -9,-5.5 -4.2,1 -6.6,4.6 -5.6,8.6 0.9,3.9 4.4,6.4 9.1,5.4 4.2,-1 6.3,-4.8 5.5,-8.5 z m -1,-0.2 c 0.6,2.5 -1.5,5 -5.8,6 -4,0.9 -6.3,-0.4 -6.8,-2.5 -0.6,-2.8 2,-5.2 5.8,-6.1 3.6,-0.8 6.3,0.4 6.8,2.6 z m -5.9,21.3 v 0.9 c -0.9,0 -3.1,-0.1 -3.8,-0.1 l -1.8,-10.2 0.8,-0.1 c 0.5,1.8 0.6,2 2.4,1.6 l 8.4,-1.5 c 1.8,-0.3 1.9,-0.6 1.7,-2.3 l 0.8,-0.1 1.1,6.2 -0.8,0.1 c -0.4,-1.7 -0.6,-1.8 -2.4,-1.5 l -8.4,1.5 c -1.1,0.2 -1.5,0.4 -1.6,0.9 -0.1,0.4 0,1.1 0.1,1.8 0.2,1 0.4,1.7 1.1,2.1 0.5,0.2 1.3,0.5 2.4,0.7 z m 11.6,8.8 c -0.4,-4.7 -4.2,-7.1 -8.1,-6.8 -4.3,0.3 -7.2,3.6 -6.9,7.7 0.3,4 3.4,7 8.2,6.7 4.5,-0.4 7.1,-3.8 6.8,-7.6 z m -0.9,-0.4 c 0.2,2.6 -2.2,4.7 -6.7,5.1 -4.1,0.3 -6.2,-1.3 -6.4,-3.5 -0.2,-2.8 2.7,-4.9 6.6,-5.2 3.9,-0.3 6.3,1.4 6.5,3.6 z m -6.4,25.1 0.2,-6.1 h -0.8 c -0.2,2.2 -0.4,2.3 -1.9,2.3 h -2 c -0.8,0 -1.1,-0.2 -1.3,-0.6 -0.2,-0.4 -0.3,-0.9 -0.3,-1.4 0.1,-3.7 3.6,-5.3 6.9,-5.3 4,0.1 6.3,2.5 6.3,5.3 0,1.9 -0.9,3.4 -3.5,3.9 l 0.1,0.8 c 1.6,-0.1 2.8,-0.2 3.6,-0.2 0.2,-0.8 0.7,-2.4 0.7,-4.1 0.1,-4.4 -2.4,-8.5 -7.5,-8.6 -4.4,-0.1 -7.4,2.9 -7.5,7.8 0,1.8 0.4,3.6 0.6,4.9 0.6,-0.1 1.4,-0.1 2.1,-0.1 h 1.8 c 1.4,0 1.5,0.2 1.6,1.3 z m 6.4,15.3 0.4,-5 -0.8,-0.1 c -0.3,1.6 -0.5,1.6 -1.4,1.2 -1.3,-0.7 -3.3,-1.9 -4.5,-2.7 1.6,-0.8 3.4,-1.6 5,-2.3 0.8,-0.3 1,-0.4 1.1,1.1 l 0.8,0.1 0.4,-5.8 -0.8,-0.1 c -0.2,1.2 -0.5,1.5 -1.9,2.2 -2.3,1 -3.8,1.7 -5.1,2.3 -0.5,0.3 -0.8,0.3 -1.3,0.3 l -2.6,-0.2 c -1.8,-0.1 -1.9,-0.3 -1.9,-2.2 l -0.8,-0.1 -0.5,6.7 0.8,0.1 c 0.3,-2 0.4,-2.1 2.3,-2 l 2.9,0.2 c 0.6,0 0.8,0.1 1.4,0.5 1.9,1.2 3,1.9 4.3,2.9 1.3,0.9 1.6,1.3 1.6,2.7 z m -11.1,20.2 1.1,-6 -0.8,-0.1 c -0.6,2.1 -0.7,2.2 -2.2,2 l -1.9,-0.3 c -0.7,-0.1 -1,-0.4 -1.2,-0.8 -0.1,-0.4 -0.2,-0.9 -0.1,-1.5 0.7,-3.7 4.4,-4.7 7.6,-4.1 3.9,0.7 5.9,3.4 5.4,6.2 -0.3,1.9 -1.4,3.3 -4.1,3.4 v 0.9 c 1.6,0.1 2.8,0.2 3.6,0.3 0.3,-0.7 1,-2.3 1.3,-4 0.8,-4.4 -1,-8.7 -6.1,-9.6 -4.3,-0.8 -7.8,1.8 -8.6,6.6 -0.3,1.7 -0.2,3.6 -0.1,5 0.6,0 1.4,0.1 2.1,0.2 l 1.8,0.3 c 1.4,0.2 1.4,0.4 1.4,1.6 z m -11.2,13.6 1.6,-5.7 0.8,0.2 c -0.2,1.3 0,1.5 0.9,1.5 0.7,-0.1 1.8,-0.1 2.9,-0.2 l 1.2,-4.2 c -0.6,-0.5 -1.3,-0.9 -2.1,-1.4 -1,-0.7 -1.3,-0.6 -1.9,0.8 l -0.8,-0.2 1.3,-4.7 0.8,0.2 c -0.2,1.4 -0.1,1.8 1.5,3 l 9.8,7.4 v 1.1 c -4,0.3 -8.3,0.5 -12.3,0.8 -2,0.1 -2.3,0.3 -2.8,1.7 z m 7.4,-4.2 5.4,-0.3 v -0.1 c -1.5,-1.1 -3,-2.1 -4.4,-3.2 z m 0.1,24.5 2,-5 -0.7,-0.3 c -0.6,1.4 -1.1,1.7 -2,1.5 -0.6,-0.2 -1.6,-0.5 -3.4,-1.2 l -4.2,-1.7 v -0.1 l 12.6,-4.1 1.4,-3.5 -0.7,-0.3 c -0.4,0.8 -0.8,1.3 -1.4,1.5 -0.6,0.2 -0.9,0.1 -2.3,-0.4 l -4.4,-1.7 c -1.7,-0.7 -2.7,-1.2 -3.3,-1.5 -0.8,-0.4 -1,-1 -0.6,-2.2 l -0.8,-0.3 -2,5 0.8,0.3 c 0.6,-1.4 1.1,-1.7 2.1,-1.4 0.6,0.2 1.7,0.5 3.4,1.2 l 4.8,1.9 v 0 l -13.6,4.2 -0.4,1 8.2,3.2 c 1.8,0.7 2.7,1.2 3.3,1.5 0.8,0.4 0.9,1 0.5,2.1 z m -1.1,2.6 -2.9,5.6 c -1.3,2.5 -2.7,4.1 -4.5,4.7 -1.4,0.5 -3.2,0.4 -5,-0.5 -2.4,-1.2 -3.7,-3 -4,-5.1 -0.4,-2 0.1,-4.2 1.3,-6.6 l 2.4,-4.8 0.7,0.4 c -0.7,1.7 -0.7,1.9 1,2.7 l 7.6,3.9 c 1.6,0.8 1.9,0.7 2.7,-0.6 z m -4,2.7 -8,-4.1 c -1.4,-0.7 -2.1,-0.5 -2.8,0.9 -1.5,2.9 -0.1,5.8 3.3,7.6 1.9,1 3.8,1.2 5.3,0.5 1.1,-0.4 2,-1.3 2.7,-2.6 0.4,-0.8 0.5,-1.2 0.4,-1.5 -0.1,-0.3 -0.3,-0.5 -0.9,-0.8 z m -12,25.7 3.4,-5.2 -0.7,-0.4 c -1,1.3 -1.2,1.4 -2.7,0.4 l -2.8,-1.8 3.5,-5.4 2.8,1.8 c 1.5,1 1.6,1.2 0.8,2.6 l 0.7,0.4 3.4,-5.2 -0.7,-0.4 c -1,1.4 -1.3,1.5 -2.8,0.5 l -7.2,-4.6 c -1.5,-1 -1.5,-1.2 -0.8,-2.7 l -0.7,-0.4 -3.4,5.2 0.7,0.4 c 1,-1.3 1.2,-1.4 2.8,-0.4 l 3.5,2.2 -3.5,5.4 -3.5,-2.2 c -1.5,-1 -1.5,-1.2 -0.7,-2.8 l -0.7,-0.4 -3.4,5.4 0.7,0.4 c 1.1,-1.3 1.2,-1.5 2.8,-0.5 l 7.2,4.6 c 1.5,1 1.6,1.2 0.7,2.7 z m -16.7,-1.3 3.6,-5.1 0.7,0.5 c -0.9,1.4 -0.9,1.7 0.6,2.8 l 6.9,4.9 c 1.5,1.1 1.8,1 2.8,-0.3 l 0.7,0.5 -3.6,5 -0.7,-0.5 c 0.9,-1.4 0.9,-1.7 -0.6,-2.8 l -7,-4.9 c -1.5,-1.1 -1.7,-1 -2.8,0.3 z m 1,21.9 -0.6,-0.5 c 0.7,-1 0.7,-1.6 0.1,-2.2 -0.5,-0.5 -1.2,-1.2 -2.8,-2.4 l -7,-5.5 0.6,-0.8 14.2,-0.1 v 0 l -4,-3.2 c -1.5,-1.2 -2.4,-1.7 -2.9,-2.1 -0.8,-0.5 -1.4,-0.4 -2.4,0.8 l -0.6,-0.5 3.3,-4.2 0.6,0.5 c -0.7,1 -0.8,1.6 -0.1,2.3 0.5,0.5 1.3,1.2 2.7,2.4 l 3.7,2.9 c 1.2,0.9 1.4,1.1 2.1,1.1 0.7,0 1.1,-0.3 1.8,-1 l 0.6,0.5 -2.3,2.9 -13.2,0.3 v 0.1 l 3.6,2.8 c 1.5,1.2 2.4,1.8 3,2.1 0.8,0.5 1.3,0.3 2.3,-0.9 l 0.6,0.5 z m -21.4,1.4 0.6,0.6 c 1.1,-0.9 1.5,-1 3.3,-0.2 3.7,1.6 7.6,3.4 11.3,5 l 0.5,-0.9 -5.2,-11.1 c -0.9,-1.8 -0.8,-2.1 0.1,-3.3 l -0.6,-0.6 -3.4,3.6 0.6,0.6 c 1.2,-1 1.5,-0.9 2.1,0.2 0.5,0.8 0.9,1.5 1.2,2.2 l -3,3.2 c -1,-0.4 -1.9,-0.9 -2.6,-1.2 -0.9,-0.4 -0.9,-0.6 -0.1,-1.7 l -0.6,-0.6 z m 8.5,-0.3 4.9,2.3 v -0.1 c -0.8,-1.6 -1.7,-3.3 -2.5,-4.9 z m -15.3,15.2 -0.5,-0.6 c 0.7,-0.9 0.8,-1.1 -0.1,-2.1 l -1.2,-1.4 c -0.5,-0.6 -1,-1.1 -1.5,-1.5 0.8,-1.1 1.9,-2.6 3.2,-3.8 3.7,-3.2 8,-3 10.9,0.3 3.3,3.9 2,8.4 -1.3,11.3 -1.3,1.1 -2.8,1.9 -3.5,2.2 -0.6,-0.5 -1.4,-1.3 -2.6,-2.5 l 0.5,-0.7 c 2.1,1.6 3.9,1.2 5.3,0 2.1,-1.9 2.3,-5.2 -0.3,-8.2 -2.2,-2.5 -5.7,-4 -8.5,-1.6 -0.4,0.4 -0.7,0.8 -0.9,1.2 -0.1,0.4 -0.1,0.8 0.4,1.3 l 1.3,1.5 c 1,1.1 1.2,1.2 3,-0.1 l 0.5,0.6 z m -17,4 0.5,0.7 c 1.3,-0.7 1.6,-0.7 3.3,0.5 3.3,2.2 6.9,4.8 10.1,7.1 l 0.7,-0.8 -3,-11.9 c -0.5,-2 -0.4,-2.2 0.7,-3.2 l -0.5,-0.7 -4,2.9 0.5,0.7 c 1.4,-0.8 1.6,-0.6 2,0.5 0.3,0.9 0.5,1.7 0.7,2.4 l -3.5,2.5 c -0.9,-0.6 -1.7,-1.2 -2.3,-1.6 -0.8,-0.6 -0.8,-0.8 0.2,-1.7 l -0.5,-0.7 z m 8.5,1.3 3,-2.1 c 0.5,1.7 1,3.5 1.5,5.2 H 411 Z m -20.5,7.1 -0.3,-0.7 c 0.2,-0.1 0.4,-0.2 0.6,-0.4 2,-1.1 3,-1.1 4.5,-0.4 1.1,0.5 2.4,1.2 3.5,1.8 0.6,0.3 1.1,0.3 1.8,-0.1 l 0.5,-0.3 -1.8,-2.7 c -1,-1.5 -1.2,-1.6 -2.7,-0.8 l -0.4,-0.7 5.2,-3.4 0.4,0.7 c -1.4,1 -1.5,1.3 -0.5,2.8 l 4.6,7.2 c 1,1.5 1.2,1.5 2.7,0.7 l 0.4,0.7 -5,3.2 c -1.5,0.9 -2.5,1.4 -3.5,1.3 -1.1,0 -2.1,-0.5 -2.9,-1.6 -1,-1.6 -0.6,-3.2 0.3,-4.6 -0.7,-0.3 -2.2,-1.1 -3.3,-1.6 -1.3,-0.6 -2,-0.9 -2.6,-1 -0.5,-0.3 -1,-0.3 -1.5,-0.1 z m 11.2,0.6 -0.7,0.5 c -0.8,0.5 -1.3,1 -1.5,1.7 -0.3,1 -0.2,1.9 0.5,2.9 1.2,1.9 2.9,1.8 4.1,1.1 0.5,-0.3 0.7,-0.6 0.7,-0.8 0.1,-0.2 0,-0.4 -0.3,-0.9 z"
   id="path57"
   style="stroke-width:1.379" />
	<polygon
   class="st0"
   points="289.7,608.1 295.4,608.1 297.2,602.4 298.9,608.1 304.6,608.1 300,611.6 301.8,617.3 297.2,613.8 292.5,617.3 294.3,611.6 "
   id="polygon59"
   style="stroke-width:1.379" />
	<polygon
   class="st0"
   points="264.5,605.4 270.1,606.1 272.6,600.7 273.6,606.6 279.2,607.4 274.2,610.3 275.2,616.1 271.1,612 266,614.9 268.6,609.5 "
   id="polygon61"
   style="stroke-width:1.379" />
	<polygon
   class="st0"
   points="239.9,599.3 245.4,600.8 248.6,595.8 248.8,601.7 254.3,603.3 248.9,605.4 249.1,611.4 245.6,606.8 240.2,608.9 243.4,603.9 "
   id="polygon63"
   style="stroke-width:1.379" />
	<polygon
   class="st0"
   points="329.8,605.4 324.1,606.2 321.6,600.7 320.7,606.6 315,607.4 320.1,610.3 319.1,616.1 323.2,612 328.2,614.9 325.7,609.5 "
   id="polygon65"
   style="stroke-width:1.379" />
	<polygon
   class="st0"
   points="354.4,599.3 348.9,600.8 345.6,595.8 345.5,601.8 340,603.3 345.4,605.4 345.2,611.4 348.7,606.8 354.1,608.9 350.9,603.9 "
   id="polygon67"
   style="stroke-width:1.379" />
</g>
</svg>
