<svg width="512" height="512" xmlns="http://www.w3.org/2000/svg">

 <g>
  <title>background</title>
  <rect fill="none" id="canvas_background" height="402" width="582" y="-1" x="-1"/>
 </g>
 <g>
  <title>Layer 1</title>
  <path stroke="null" fill="#fcc117" id="svg_1" d="m463.82263,85.377564c0,0 -239.034647,0 -258.039987,0c-7.262203,0 -16.533101,-15.142204 -28.585268,-29.060795c-10.970562,-12.694979 -22.713699,-19.883702 -31.675567,-19.883702c-11.588622,0 -93.172522,0 -93.172522,0c-23.949819,0 -43.573219,13.612688 -43.573219,37.167227l0,358.824343c0,23.707491 19.6234,44.508902 43.573219,44.508902l411.473345,0c23.949819,0 39.401315,-20.801411 39.401315,-44.508902l0,-309.115088c0,-23.707491 -15.451496,-37.931985 -39.401315,-37.931985zm-411.473345,-24.472248l67.677554,0c0,0 11.434107,0 17.460191,0c6.026084,0 13.288287,2.447225 22.09564,12.694979c18.69631,21.872072 23.949819,36.249518 46.199974,36.249518l258.039987,0c10.197988,0 14.678921,3.364934 14.678921,13.459737l0,35.48476l-445.003092,0l0,-85.194015c0,-13.76564 15.915041,-12.694979 18.850825,-12.694979zm411.473345,391.555975l-411.473345,0c-10.043473,0 -18.850825,-9.482996 -18.850825,-20.036653l0,-249.15808l445.003092,0l0,249.15808c0,9.177093 -4.017389,20.036653 -14.678921,20.036653z"/>
 </g>
</svg>