<svg width="24" height="24" xmlns="http://www.w3.org/2000/svg">
 <title/>

 <g>
  <title>background</title>
  <rect fill="none" id="canvas_background" height="402" width="582" y="-1" x="-1"/>
 </g>
 <g>
  <title>Layer 1</title>
  <path fill="#112240" id="svg_1" d="m18,6l-1,0l0,-4l-2,0l0,4l-2,0l0,-4l-2,0l0,4l-2,0l0,-4l-2,0l0,4l-1,0l0,1l-4,0l0,2l4,0l0,2l-4,0l0,2l4,0l0,2l-4,0l0,2l4,0l0,1l1,0l0,4l2,0l0,-4l2,0l0,4l2,0l0,-4l2,0l0,4l2,0l0,-4l1,0l0,-1l4,0l0,-2l-4,0l0,-2l4,0l0,-2l-4,0l0,-2l4,0l0,-2l-4,0l0,-1zm-2,10l-8,0l0,-8l8,0l0,8z"/>
  <rect fill="#112240" id="svg_2" y="11" x="11" width="2" height="2"/>
 </g>
</svg>