<?xml version="1.0" standalone="no"?><svg xmlns:xlink="http://www.w3.org/1999/xlink" xmlns="http://www.w3.org/2000/svg" viewBox="0 0 1000 1333.3333333333335" preserveAspectRatio="xMaxYMax slice"><g transform="scale(2.7034333603676672)"><rect x="0" y="0" width="369.90000000000003" height="493.20000000000005" fill="#ffffff"/><rect x="0" y="0" width="61.650000000000006" height="61.650000000000006" fill="#ffffff"/><rect x="0" y="0" width="30.83" height="30.83" fill="#f6f6f6"/><polygon points="30.83,0 30.83,30.83 0,30.83" fill="#f0f0f0"/><rect x="30.83" y="0" width="30.83" height="30.83" fill="#ebebeb"/><polygon points="30.83,0 61.66,0 30.83,30.83" fill="#f2f2f2"/><rect x="0" y="30.83" width="30.83" height="30.83" fill="#dbdbdb"/><polygon points="0,30.83 30.83,30.83 30.83,61.66" fill="#ececec"/><rect x="30.83" y="30.83" width="30.83" height="30.83" fill="#f3f3f3"/><polygon points="30.83,30.83 61.66,61.66 30.83,61.66" fill="#dadada"/><rect x="61.65" y="0" width="61.65" height="61.65" fill="#cfcfcf"/><rect x="61.65" y="0" width="61.65" height="61.65" fill="#e3e3e3"/><rect x="123.3" y="0" width="61.65" height="61.65" fill="#f9f9f9"/><path d="M 123.3 61.65 A 61.65 61.65 0 0 1  184.95 0 L 123.3 61.65 A 61.65 61.65 0 0 0 184.95 0" fill="#f0f0f0"/><rect x="184.95" y="0" width="61.65" height="61.65" fill="#eaeaea"/><path d="M 184.95 61.65 A 61.65 61.65 0 0 1  246.6 0 L 246.6 61.65" fill="#fbfbfb"/><rect x="246.60000000000002" y="0" width="61.650000000000006" height="61.650000000000006" fill="#ffffff"/><rect x="246.6" y="0" width="30.83" height="30.83" fill="#fefefe"/><path d="M 246.6 30.83 A 30.83 30.83 0 0 1 277.43 0 L 277.43 7.7075 A 23.1225 23.1225 0 0 0 254.3075 30.83" fill="#ffffff"/><rect x="277.43" y="0" width="30.83" height="30.83" fill="#c2c2c2"/><path d="M 277.43 0 A 30.83 30.83 0 0 1 308.26 30.83 L 300.5525 30.83 A 23.1225 23.1225 0 0 0 277.43 7.7075" fill="#f5f5f5"/><rect x="246.6" y="30.83" width="30.83" height="30.83" fill="#f9f9f9"/><path d="M 246.6 30.83 A 30.83 30.83 0 0 0 277.43 61.66 L 277.43 53.9525 A 23.1225 23.1225 0 0 1 254.3075 30.83" fill="#fefefe"/><rect x="277.43" y="30.83" width="30.83" height="30.83" fill="#e8e8e8"/><path d="M 277.43 61.66 A 30.83 30.83 0 0 0 308.26 30.83 L 300.5525 30.83 A 23.1225 23.1225 0 0 1 277.43 53.9525" fill="#fefefe"/><rect x="308.25" y="0" width="61.65" height="61.65" fill="#fefefe"/><path d="M 308.25 0 A 61.65 61.65 0 0 1 369.9 61.65 L 308.25 61.65" fill="#f0f0f0"/><rect x="0" y="61.65" width="61.65" height="61.65" fill="#dadada"/><path d="M 0 61.65 A 61.65 61.65 0 0 0 61.65 123.3 L 61.65 61.65" fill="#eaeaea"/><rect x="61.650000000000006" y="61.650000000000006" width="61.650000000000006" height="61.650000000000006" fill="#ffffff"/><rect x="61.65" y="61.65" width="30.83" height="30.83" fill="#d1d1d1"/><path d="M 61.65 92.47999999999999 A 30.83 30.83 0 0 0 92.47999999999999 61.65 L 61.65 61.65" fill="#f1f1f1"/><rect x="92.48" y="61.65" width="30.83" height="30.83" fill="#fafafa"/><path d="M 92.48 61.65 A 30.83 30.83 0 0 0 123.31 92.47999999999999 L 123.31 61.65" fill="#c7c7c7"/><rect x="61.65" y="92.48" width="30.83" height="30.83" fill="#ececec"/><path d="M 61.65 92.48 A 30.83 30.83 0 0 1 92.47999999999999 123.31 L 61.65 123.31" fill="#fbfbfb"/><rect x="92.48" y="92.48" width="30.83" height="30.83" fill="#fafafa"/><path d="M 92.48 123.31 A 30.83 30.83 0 0 1  123.31 92.48 L 123.31 123.31" fill="#f8f8f8"/><rect x="123.30000000000001" y="61.650000000000006" width="61.650000000000006" height="61.650000000000006" fill="#ffffff"/><rect x="123.3" y="61.65" width="30.83" height="30.83" fill="#f3f3f3"/><polygon points="154.13,61.65 154.13,92.47999999999999 123.3,92.47999999999999" fill="#f4f4f4"/><rect x="154.13" y="61.65" width="30.83" height="30.83" fill="#e5e5e5"/><polygon points="154.13,61.65 184.95999999999998,61.65 154.13,92.47999999999999" fill="#eaeaea"/><rect x="123.3" y="92.48" width="30.83" height="30.83" fill="#e8e8e8"/><polygon points="123.3,92.48 154.13,92.48 154.13,123.31" fill="#f0f0f0"/><rect x="154.13" y="92.48" width="30.83" height="30.83" fill="#f5f5f5"/><polygon points="154.13,92.48 184.95999999999998,123.31 154.13,123.31" fill="#e8e8e8"/><rect x="184.95000000000002" y="61.650000000000006" width="61.650000000000006" height="61.650000000000006" fill="#ffffff"/><rect x="184.95" y="61.65" width="30.83" height="30.83" fill="#fafafa"/><path d="M 184.95 61.65 A 30.83 30.83 0 0 0 215.77999999999997 92.47999999999999 L 215.77999999999997 61.65" fill="#c2c2c2"/><rect x="215.78" y="61.65" width="30.83" height="30.83" fill="#ededed"/><path d="M 215.78 92.47999999999999 A 30.83 30.83 0 0 0 246.61 61.65 L 215.78 61.65" fill="#f6f6f6"/><rect x="184.95" y="92.48" width="30.83" height="30.83" fill="#efefef"/><path d="M 184.95 123.31 A 30.83 30.83 0 0 1  215.77999999999997 92.48 L 215.77999999999997 123.31" fill="#cbcbcb"/><rect x="215.78" y="92.48" width="30.83" height="30.83" fill="#dddddd"/><path d="M 215.78 92.48 A 30.83 30.83 0 0 1 246.61 123.31 L 215.78 123.31" fill="#e4e4e4"/><rect x="246.60000000000002" y="61.650000000000006" width="61.650000000000006" height="61.650000000000006" fill="#ffffff"/><rect x="246.6" y="61.65" width="30.83" height="30.83" fill="#f4f4f4"/><polygon points="277.43,61.65 277.43,92.47999999999999 246.6,92.47999999999999" fill="#ebebeb"/><rect x="277.43" y="61.65" width="30.83" height="30.83" fill="#dfdfdf"/><polygon points="277.43,61.65 308.26,92.47999999999999 277.43,92.47999999999999" fill="#fcfcfc"/><rect x="246.6" y="92.48" width="30.83" height="30.83" fill="#c6c6c6"/><polygon points="246.6,92.48 277.43,92.48 277.43,123.31" fill="#e6e6e6"/><rect x="277.43" y="92.48" width="30.83" height="30.83" fill="#e9e9e9"/><polygon points="277.43,92.48 308.26,92.48 277.43,123.31" fill="#f9f9f9"/><rect x="308.25" y="61.650000000000006" width="61.650000000000006" height="61.650000000000006" fill="#ffffff"/><rect x="308.25" y="61.65" width="30.83" height="30.83" fill="#fdfdfd"/><polygon points="339.08,61.65 339.08,92.47999999999999 308.25,92.47999999999999" fill="#c6c6c6"/><rect x="339.08" y="61.65" width="30.83" height="30.83" fill="#f3f3f3"/><polygon points="339.08,61.65 369.90999999999997,92.47999999999999 339.08,92.47999999999999" fill="#fcfcfc"/><rect x="308.25" y="92.48" width="30.83" height="30.83" fill="#dcdcdc"/><polygon points="308.25,92.48 339.08,92.48 339.08,123.31" fill="#e7e7e7"/><rect x="339.08" y="92.48" width="30.83" height="30.83" fill="#d8d8d8"/><polygon points="339.08,92.48 369.90999999999997,92.48 339.08,123.31" fill="#e1e1e1"/><rect x="0" y="123.30000000000001" width="61.650000000000006" height="61.650000000000006" fill="#ffffff"/><rect x="0" y="123.3" width="30.83" height="30.83" fill="#f4f4f4"/><path d="M 0 123.3 A 30.83 30.83 0 0 1 30.83 154.13 L 0 154.13" fill="#f5f5f5"/><rect x="30.83" y="123.3" width="30.83" height="30.83" fill="#f6f6f6"/><path d="M 30.83 154.13 A 30.83 30.83 0 0 1  61.66 123.3 L 61.66 154.13" fill="#f8f8f8"/><rect x="0" y="154.13" width="30.83" height="30.83" fill="#f9f9f9"/><path d="M 0 184.95999999999998 A 30.83 30.83 0 0 0 30.83 154.13 L 0 154.13" fill="#f5f5f5"/><rect x="30.83" y="154.13" width="30.83" height="30.83" fill="#e6e6e6"/><path d="M 30.83 154.13 A 30.83 30.83 0 0 0 61.66 184.95999999999998 L 61.66 154.13" fill="#ececec"/><rect x="61.650000000000006" y="123.30000000000001" width="61.650000000000006" height="61.650000000000006" fill="#ffffff"/><rect x="61.65" y="123.3" width="30.83" height="30.83" fill="#fbfbfb"/><path d="M 61.65 154.13 A 30.83 30.83 0 0 1  92.47999999999999 123.3 L 92.47999999999999 154.13" fill="#f3f3f3"/><rect x="92.48" y="123.3" width="30.83" height="30.83" fill="#ebebeb"/><path d="M 92.48 123.3 A 30.83 30.83 0 0 1 123.31 154.13 L 92.48 154.13" fill="#eaeaea"/><rect x="61.65" y="154.13" width="30.83" height="30.83" fill="#f8f8f8"/><path d="M 61.65 154.13 A 30.83 30.83 0 0 0 92.47999999999999 184.95999999999998 L 92.47999999999999 154.13" fill="#efefef"/><rect x="92.48" y="154.13" width="30.83" height="30.83" fill="#fcfcfc"/><path d="M 92.48 184.95999999999998 A 30.83 30.83 0 0 0 123.31 154.13 L 92.48 154.13" fill="#f9f9f9"/><rect x="123.30000000000001" y="123.30000000000001" width="61.650000000000006" height="61.650000000000006" fill="#ffffff"/><rect x="123.3" y="123.3" width="30.83" height="30.83" fill="#d1d1d1"/><path d="M 123.3 123.3 A 30.83 30.83 0 0 0 154.13 154.13 L 154.13 123.3" fill="#efefef"/><rect x="154.13" y="123.3" width="30.83" height="30.83" fill="#f1f1f1"/><path d="M 154.13 154.13 A 30.83 30.83 0 0 0 184.95999999999998 123.3 L 154.13 123.3" fill="#f8f8f8"/><rect x="123.3" y="154.13" width="30.83" height="30.83" fill="#c5c5c5"/><path d="M 123.3 184.95999999999998 A 30.83 30.83 0 0 1  154.13 154.13 L 154.13 184.95999999999998" fill="#ebebeb"/><rect x="154.13" y="154.13" width="30.83" height="30.83" fill="#c4c4c4"/><path d="M 154.13 154.13 A 30.83 30.83 0 0 1 184.95999999999998 184.95999999999998 L 154.13 184.95999999999998" fill="#f8f8f8"/><rect x="184.95" y="123.3" width="61.65" height="61.65" fill="#cbcbcb"/><polygon points="184.95,123.3 246.6,123.3 246.6,184.95" fill="#ededed"/><rect x="246.60000000000002" y="123.30000000000001" width="61.650000000000006" height="61.650000000000006" fill="#ffffff"/><rect x="246.6" y="123.3" width="30.83" height="30.83" fill="#ececec"/><path d="M 246.6 123.3 A 30.83 30.83 0 0 1 277.43 154.13 L 246.6 154.13" fill="#cdcdcd"/><rect x="277.43" y="123.3" width="30.83" height="30.83" fill="#cdcdcd"/><path d="M 277.43 154.13 A 30.83 30.83 0 0 1  308.26 123.3 L 308.26 154.13" fill="#f0f0f0"/><rect x="246.6" y="154.13" width="30.83" height="30.83" fill="#d8d8d8"/><path d="M 246.6 184.95999999999998 A 30.83 30.83 0 0 0 277.43 154.13 L 246.6 154.13" fill="#c5c5c5"/><rect x="277.43" y="154.13" width="30.83" height="30.83" fill="#e3e3e3"/><path d="M 277.43 154.13 A 30.83 30.83 0 0 0 308.26 184.95999999999998 L 308.26 154.13" fill="#fefefe"/><rect x="308.25" y="123.3" width="61.65" height="61.65" fill="#cccccc"/><polygon points="369.9,123.3 369.9,184.95 308.25,184.95" fill="#f2f2f2"/><rect x="0" y="184.95000000000002" width="61.650000000000006" height="61.650000000000006" fill="#ffffff"/><rect x="0" y="184.95" width="30.83" height="30.83" fill="#f4f4f4"/><path d="M 0 215.77999999999997 A 30.83 30.83 0 0 1 30.83 184.95 L 30.83 192.6575 A 23.1225 23.1225 0 0 0 7.7075 215.77999999999997" fill="#f7f7f7"/><rect x="30.83" y="184.95" width="30.83" height="30.83" fill="#e7e7e7"/><path d="M 30.83 184.95 A 30.83 30.83 0 0 1 61.66 215.77999999999997 L 53.9525 215.77999999999997 A 23.1225 23.1225 0 0 0 30.83 192.6575" fill="#efefef"/><rect x="0" y="215.78" width="30.83" height="30.83" fill="#efefef"/><path d="M 0 215.78 A 30.83 30.83 0 0 0 30.83 246.61 L 30.83 238.9025 A 23.1225 23.1225 0 0 1 7.7075 215.78" fill="#fafafa"/><rect x="30.83" y="215.78" width="30.83" height="30.83" fill="#e9e9e9"/><path d="M 30.83 246.61 A 30.83 30.83 0 0 0 61.66 215.78 L 53.9525 215.78 A 23.1225 23.1225 0 0 1 30.83 238.9025" fill="#e6e6e6"/><rect x="61.65" y="184.95" width="61.65" height="61.65" fill="#fcfcfc"/><rect x="61.65" y="184.95" width="61.65" height="61.65" fill="#d9d9d9"/><rect x="123.3" y="184.95" width="61.65" height="61.65" fill="#ffffff"/><polygon points="184.95,184.95 184.95,246.6 123.3,246.6" fill="#ededed"/><rect x="184.95" y="184.95" width="61.65" height="61.65" fill="#f0f0f0"/><path d="M 184.95 184.95 A 61.65 61.65 0 0 1 246.6 246.6 L 184.95 246.6" fill="#fefefe"/><rect x="246.60000000000002" y="184.95000000000002" width="61.650000000000006" height="61.650000000000006" fill="#ffffff"/><rect x="246.6" y="184.95" width="30.83" height="30.83" fill="#f7f7f7"/><circle cx="262.015" cy="200.36499999999998" r="15.415" fill="#c8c8c8"/><rect x="277.43" y="184.95" width="30.83" height="30.83" fill="#e9e9e9"/><rect x="277.43" y="184.95" width="30.83" height="30.83" fill="#e7e7e7"/><rect x="246.6" y="215.78" width="30.83" height="30.83" fill="#e2e2e2"/><circle cx="262.015" cy="231.195" r="15.415" fill="#e8e8e8"/><rect x="277.43" y="215.78" width="30.83" height="30.83" fill="#fefefe"/><rect x="277.43" y="215.78" width="30.83" height="30.83" fill="#e7e7e7"/><rect x="308.25" y="184.95" width="61.65" height="61.65" fill="#ebebeb"/><polygon points="369.9,184.95 369.9,246.6 308.25,246.6" fill="#fafafa"/><rect x="0" y="246.60000000000002" width="61.650000000000006" height="61.650000000000006" fill="#ffffff"/><rect x="0" y="246.6" width="30.83" height="30.83" fill="#fefefe"/><polygon points="30.83,246.6 30.83,277.43 0,277.43" fill="#d0d0d0"/><rect x="30.83" y="246.6" width="30.83" height="30.83" fill="#cccccc"/><polygon points="30.83,246.6 61.66,246.6 30.83,277.43" fill="#fdfdfd"/><rect x="0" y="277.43" width="30.83" height="30.83" fill="#fcfcfc"/><polygon points="0,277.43 30.83,277.43 30.83,308.26" fill="#c4c4c4"/><rect x="30.83" y="277.43" width="30.83" height="30.83" fill="#c6c6c6"/><polygon points="30.83,277.43 61.66,308.26 30.83,308.26" fill="#d9d9d9"/><rect x="61.65" y="246.6" width="61.65" height="61.65" fill="#e3e3e3"/><path d="M 61.65 308.25 A 61.65 61.65 0 0 1  123.3 246.6 L 123.3 308.25" fill="#f0f0f0"/><rect x="123.3" y="246.6" width="61.65" height="61.65" fill="#dfdfdf"/><rect x="123.3" y="246.6" width="61.65" height="61.65" fill="#cdcdcd"/><rect x="184.95000000000002" y="246.60000000000002" width="61.650000000000006" height="61.650000000000006" fill="#ffffff"/><rect x="184.95" y="246.6" width="30.83" height="30.83" fill="#f4f4f4"/><polygon points="215.77999999999997,246.6 215.77999999999997,277.43 184.95,277.43" fill="#eeeeee"/><rect x="215.78" y="246.6" width="30.83" height="30.83" fill="#d6d6d6"/><polygon points="215.78,246.6 246.61,246.6 215.78,277.43" fill="#cecece"/><rect x="184.95" y="277.43" width="30.83" height="30.83" fill="#dadada"/><polygon points="184.95,277.43 215.77999999999997,277.43 215.77999999999997,308.26" fill="#e8e8e8"/><rect x="215.78" y="277.43" width="30.83" height="30.83" fill="#eeeeee"/><polygon points="215.78,277.43 246.61,308.26 215.78,308.26" fill="#c5c5c5"/><rect x="246.6" y="246.6" width="61.65" height="61.65" fill="#e8e8e8"/><polygon points="246.6,246.6 308.25,308.25 246.6,308.25" fill="#ebebeb"/><rect x="308.25" y="246.6" width="61.65" height="61.65" fill="#e1e1e1"/><path d="M 308.25 246.6 A 61.65 61.65 0 0 0 369.9 308.25 L 369.9 246.6" fill="#f5f5f5"/><rect x="0" y="308.25" width="61.650000000000006" height="61.650000000000006" fill="#ffffff"/><rect x="0" y="308.25" width="30.83" height="30.83" fill="#d9d9d9"/><path d="M 0 308.25 A 30.83 30.83 0 0 1 30.83 339.08 L 0 339.08" fill="#fafafa"/><rect x="30.83" y="308.25" width="30.83" height="30.83" fill="#c2c2c2"/><path d="M 30.83 339.08 A 30.83 30.83 0 0 1  61.66 308.25 L 61.66 339.08" fill="#c4c4c4"/><rect x="0" y="339.08" width="30.83" height="30.83" fill="#dedede"/><path d="M 0 369.90999999999997 A 30.83 30.83 0 0 0 30.83 339.08 L 0 339.08" fill="#fcfcfc"/><rect x="30.83" y="339.08" width="30.83" height="30.83" fill="#f3f3f3"/><path d="M 30.83 339.08 A 30.83 30.83 0 0 0 61.66 369.90999999999997 L 61.66 339.08" fill="#fafafa"/><rect x="61.650000000000006" y="308.25" width="61.650000000000006" height="61.650000000000006" fill="#ffffff"/><rect x="61.65" y="308.25" width="30.83" height="30.83" fill="#dddddd"/><path d="M 61.65 308.25 A 30.83 30.83 0 0 1 92.47999999999999 339.08 L 61.65 339.08" fill="#cfcfcf"/><rect x="92.48" y="308.25" width="30.83" height="30.83" fill="#c8c8c8"/><path d="M 92.48 339.08 A 30.83 30.83 0 0 1  123.31 308.25 L 123.31 339.08" fill="#e9e9e9"/><rect x="61.65" y="339.08" width="30.83" height="30.83" fill="#f3f3f3"/><path d="M 61.65 369.90999999999997 A 30.83 30.83 0 0 0 92.47999999999999 339.08 L 61.65 339.08" fill="#f5f5f5"/><rect x="92.48" y="339.08" width="30.83" height="30.83" fill="#c6c6c6"/><path d="M 92.48 339.08 A 30.83 30.83 0 0 0 123.31 369.90999999999997 L 123.31 339.08" fill="#f3f3f3"/><rect x="123.3" y="308.25" width="61.65" height="61.65" fill="#d4d4d4"/><polygon points="184.95,308.25 184.95,369.9 123.3,369.9" fill="#dbdbdb"/><rect x="184.95000000000002" y="308.25" width="61.650000000000006" height="61.650000000000006" fill="#ffffff"/><rect x="184.95" y="308.25" width="30.83" height="30.83" fill="#eaeaea"/><path d="M 184.95 339.08 A 30.83 30.83 0 0 1 215.77999999999997 308.25 L 215.77999999999997 315.9575 A 23.1225 23.1225 0 0 0 192.6575 339.08" fill="#f5f5f5"/><rect x="215.78" y="308.25" width="30.83" height="30.83" fill="#fbfbfb"/><path d="M 215.78 308.25 A 30.83 30.83 0 0 1 246.61 339.08 L 238.9025 339.08 A 23.1225 23.1225 0 0 0 215.78 315.9575" fill="#cecece"/><rect x="184.95" y="339.08" width="30.83" height="30.83" fill="#f5f5f5"/><path d="M 184.95 339.08 A 30.83 30.83 0 0 0 215.77999999999997 369.90999999999997 L 215.77999999999997 362.2025 A 23.1225 23.1225 0 0 1 192.6575 339.08" fill="#ececec"/><rect x="215.78" y="339.08" width="30.83" height="30.83" fill="#efefef"/><path d="M 215.78 369.90999999999997 A 30.83 30.83 0 0 0 246.61 339.08 L 238.9025 339.08 A 23.1225 23.1225 0 0 1 215.78 362.2025" fill="#e5e5e5"/><rect x="246.60000000000002" y="308.25" width="61.650000000000006" height="61.650000000000006" fill="#ffffff"/><rect x="246.6" y="308.25" width="30.83" height="30.83" fill="#e6e6e6"/><polygon points="277.43,308.25 277.43,339.08 246.6,339.08" fill="#d6d6d6"/><rect x="277.43" y="308.25" width="30.83" height="30.83" fill="#cfcfcf"/><polygon points="277.43,308.25 308.26,308.25 277.43,339.08" fill="#e7e7e7"/><rect x="246.6" y="339.08" width="30.83" height="30.83" fill="#efefef"/><polygon points="246.6,339.08 277.43,339.08 277.43,369.90999999999997" fill="#cdcdcd"/><rect x="277.43" y="339.08" width="30.83" height="30.83" fill="#f4f4f4"/><polygon points="277.43,339.08 308.26,369.90999999999997 277.43,369.90999999999997" fill="#f7f7f7"/><rect x="308.25" y="308.25" width="61.65" height="61.65" fill="#cdcdcd"/><polygon points="369.9,308.25 369.9,369.9 308.25,369.9" fill="#d5d5d5"/><rect x="0" y="369.90000000000003" width="61.650000000000006" height="61.650000000000006" fill="#ffffff"/><rect x="0" y="369.9" width="30.83" height="30.83" fill="#ececec"/><path d="M 0 400.72999999999996 A 30.83 30.83 0 0 1 30.83 369.9 L 30.83 377.60749999999996 A 23.1225 23.1225 0 0 0 7.7075 400.72999999999996" fill="#f6f6f6"/><rect x="30.83" y="369.9" width="30.83" height="30.83" fill="#f6f6f6"/><path d="M 30.83 369.9 A 30.83 30.83 0 0 1 61.66 400.72999999999996 L 53.9525 400.72999999999996 A 23.1225 23.1225 0 0 0 30.83 377.60749999999996" fill="#ededed"/><rect x="0" y="400.73" width="30.83" height="30.83" fill="#d7d7d7"/><path d="M 0 400.73 A 30.83 30.83 0 0 0 30.83 431.56 L 30.83 423.8525 A 23.1225 23.1225 0 0 1 7.7075 400.73" fill="#f0f0f0"/><rect x="30.83" y="400.73" width="30.83" height="30.83" fill="#c5c5c5"/><path d="M 30.83 431.56 A 30.83 30.83 0 0 0 61.66 400.73 L 53.9525 400.73 A 23.1225 23.1225 0 0 1 30.83 423.8525" fill="#fafafa"/><rect x="61.65" y="369.9" width="61.65" height="61.65" fill="#ffffff"/><rect x="61.65" y="369.9" width="61.65" height="61.65" fill="#f0f0f0"/><rect x="123.3" y="369.9" width="61.65" height="61.65" fill="#dedede"/><rect x="123.3" y="369.9" width="61.65" height="61.65" fill="#c2c2c2"/><rect x="184.95000000000002" y="369.90000000000003" width="61.650000000000006" height="61.650000000000006" fill="#ffffff"/><rect x="184.95" y="369.9" width="30.83" height="30.83" fill="#eeeeee"/><polygon points="215.77999999999997,369.9 215.77999999999997,400.72999999999996 184.95,400.72999999999996" fill="#ebebeb"/><rect x="215.78" y="369.9" width="30.83" height="30.83" fill="#e9e9e9"/><polygon points="215.78,369.9 246.61,400.72999999999996 215.78,400.72999999999996" fill="#cacaca"/><rect x="184.95" y="400.73" width="30.83" height="30.83" fill="#d7d7d7"/><polygon points="184.95,400.73 215.77999999999997,400.73 215.77999999999997,431.56" fill="#dfdfdf"/><rect x="215.78" y="400.73" width="30.83" height="30.83" fill="#eeeeee"/><polygon points="215.78,400.73 246.61,400.73 215.78,431.56" fill="#fdfdfd"/><rect x="246.60000000000002" y="369.90000000000003" width="61.650000000000006" height="61.650000000000006" fill="#ffffff"/><rect x="246.6" y="369.9" width="30.83" height="30.83" fill="#eeeeee"/><polygon points="277.43,369.9 277.43,400.72999999999996 246.6,400.72999999999996" fill="#fefefe"/><rect x="277.43" y="369.9" width="30.83" height="30.83" fill="#c7c7c7"/><polygon points="277.43,369.9 308.26,400.72999999999996 277.43,400.72999999999996" fill="#c4c4c4"/><rect x="246.6" y="400.73" width="30.83" height="30.83" fill="#eeeeee"/><polygon points="246.6,400.73 277.43,400.73 277.43,431.56" fill="#ffffff"/><rect x="277.43" y="400.73" width="30.83" height="30.83" fill="#e7e7e7"/><polygon points="277.43,400.73 308.26,400.73 277.43,431.56" fill="#dadada"/><rect x="308.25" y="369.9" width="61.65" height="61.65" fill="#f5f5f5"/><path d="M 308.25 369.9 A 61.65 61.65 0 0 0 369.9 431.54999999999995 L 369.9 369.9" fill="#f0f0f0"/><rect x="0" y="431.55" width="61.65" height="61.65" fill="#d3d3d3"/><rect x="0" y="431.55" width="61.65" height="61.65" fill="#d3d3d3"/><rect x="61.65" y="431.55" width="61.65" height="61.65" fill="#d8d8d8"/><polygon points="61.65,431.55 123.3,493.2 61.65,493.2" fill="#fefefe"/><rect x="123.3" y="431.55" width="61.65" height="61.65" fill="#e7e7e7"/><polygon points="123.3,431.55 184.95,431.55 184.95,493.2" fill="#f3f3f3"/><rect x="184.95000000000002" y="431.55000000000007" width="61.650000000000006" height="61.650000000000006" fill="#ffffff"/><rect x="184.95" y="431.55" width="30.83" height="30.83" fill="#dcdcdc"/><path d="M 184.95 431.55 A 30.83 30.83 0 0 0 215.77999999999997 462.38 L 215.77999999999997 431.55" fill="#f9f9f9"/><rect x="215.78" y="431.55" width="30.83" height="30.83" fill="#f4f4f4"/><path d="M 215.78 462.38 A 30.83 30.83 0 0 0 246.61 431.55 L 215.78 431.55" fill="#efefef"/><rect x="184.95" y="462.38" width="30.83" height="30.83" fill="#dbdbdb"/><path d="M 184.95 493.21 A 30.83 30.83 0 0 1  215.77999999999997 462.38 L 215.77999999999997 493.21" fill="#e7e7e7"/><rect x="215.78" y="462.38" width="30.83" height="30.83" fill="#d7d7d7"/><path d="M 215.78 462.38 A 30.83 30.83 0 0 1 246.61 493.21 L 215.78 493.21" fill="#fcfcfc"/><rect x="246.60000000000002" y="431.55000000000007" width="61.650000000000006" height="61.650000000000006" fill="#ffffff"/><rect x="246.6" y="431.55" width="30.83" height="30.83" fill="#ebebeb"/><path d="M 246.6 462.38 A 30.83 30.83 0 0 1 277.43 431.55 L 277.43 439.2575 A 23.1225 23.1225 0 0 0 254.3075 462.38" fill="#f8f8f8"/><rect x="277.43" y="431.55" width="30.83" height="30.83" fill="#f4f4f4"/><path d="M 277.43 431.55 A 30.83 30.83 0 0 1 308.26 462.38 L 300.5525 462.38 A 23.1225 23.1225 0 0 0 277.43 439.2575" fill="#fbfbfb"/><rect x="246.6" y="462.38" width="30.83" height="30.83" fill="#f0f0f0"/><path d="M 246.6 462.38 A 30.83 30.83 0 0 0 277.43 493.21 L 277.43 485.5025 A 23.1225 23.1225 0 0 1 254.3075 462.38" fill="#e8e8e8"/><rect x="277.43" y="462.38" width="30.83" height="30.83" fill="#e8e8e8"/><path d="M 277.43 493.21 A 30.83 30.83 0 0 0 308.26 462.38 L 300.5525 462.38 A 23.1225 23.1225 0 0 1 277.43 485.5025" fill="#f6f6f6"/><rect x="308.25" y="431.55000000000007" width="61.650000000000006" height="61.650000000000006" fill="#ffffff"/><rect x="308.25" y="431.55" width="30.83" height="30.83" fill="#ececec"/><path d="M 308.25 462.38 A 30.83 30.83 0 0 0 339.08 431.55 L 308.25 431.55" fill="#f4f4f4"/><rect x="339.08" y="431.55" width="30.83" height="30.83" fill="#efefef"/><path d="M 339.08 431.55 A 30.83 30.83 0 0 0 369.90999999999997 462.38 L 369.90999999999997 431.55" fill="#fbfbfb"/><rect x="308.25" y="462.38" width="30.83" height="30.83" fill="#fbfbfb"/><path d="M 308.25 462.38 A 30.83 30.83 0 0 1 339.08 493.21 L 308.25 493.21" fill="#f8f8f8"/><rect x="339.08" y="462.38" width="30.83" height="30.83" fill="#f3f3f3"/><path d="M 339.08 493.21 A 30.83 30.83 0 0 1  369.90999999999997 462.38 L 369.90999999999997 493.21" fill="#f3f3f3"/></g></svg>